<?xml version="1.0" encoding="UTF-8"?>
<svg width="50px" height="50px" viewBox="0 0 50 50" version="1.1" xmlns="http://www.w3.org/2000/svg" xmlns:xlink="http://www.w3.org/1999/xlink">
    <!-- Generator: Sketch 47.1 (45422) - http://www.bohemiancoding.com/sketch -->
    <title>contract</title>
    <desc>Created with Sketch.</desc>
    <defs>
        <path d="M19.6018173,0 L1.31860854,0 C0.678434622,0 0.164254411,0.513685649 0.164254411,1.14734901 L0.164254411,31.0901318 C0.164254411,31.731107 0.68107636,32.2374808 1.31860854,32.2374808 L23.6278186,32.2374808 C24.2679925,32.2374808 24.7821727,31.7237952 24.7821727,31.0901318 L24.7821727,5.09976582 C24.7262704,5.06134288 24.6682555,5.01297038 24.6087545,4.95438997 L19.7499245,0.170735158 C19.6904358,0.112166848 19.6411416,0.0550479178 19.6018173,-5.48172618e-16 Z" id="path-1"></path>
        <path d="M23.7989173,5.09054233 L20.8024856,5.09054233 L20.8024856,5.09054233 C20.1656167,5.09054233 19.6493324,4.57425808 19.6493324,3.93738918 L19.6493324,1 L19.6493324,1 C19.6493324,0.44771525 20.0970477,-8.8817842e-16 20.6493324,-8.8817842e-16 C20.9112719,-8.8817842e-16 21.1627541,0.102776269 21.3497174,0.286234697 L24.4993023,3.37677703 L24.4993023,3.37677703 C24.893504,3.76358896 24.8994946,4.3967256 24.5126826,4.79092729 C24.3246316,4.98257089 24.067414,5.09054233 23.7989173,5.09054233 Z" id="path-2"></path>
    </defs>
    <g id="Symbols" stroke="none" stroke-width="1" fill="none" fill-rule="evenodd">
        <g id="contract">
            <g id="Group" transform="translate(13.000000, 9.000000)">
                <g id="Rectangle-36">
                    <use fill="#FFFFFF" fill-rule="evenodd" xlink:href="#path-1"></use>
                    <path stroke="#0080FF" stroke-width="1.5" d="M20.2120945,-0.435960765 C20.2256025,-0.417051655 20.2469187,-0.39244705 20.276104,-0.363713269 L25.134934,4.41994154 C25.1636572,4.44822034 25.1881883,4.46875698 25.2069951,4.48168332 L25.5321727,4.70518542 L25.5321727,31.0901318 C25.5321727,32.1396753 24.6805392,32.9874808 23.6278186,32.9874808 L1.31860854,32.9874808 C0.266063196,32.9874808 -0.585745589,32.1445681 -0.585745589,31.0901318 L-0.585745589,1.14734901 C-0.585745589,0.0978055846 0.265887895,-0.75 1.31860854,-0.75 L19.9877558,-0.75 L20.2120945,-0.435960765 Z"></path>
                    <path stroke="#DCEFFE" stroke-width="1.5" d="M19.2692657,0.75 L1.31860854,0.75 C1.09280611,0.75 0.914254411,0.927749152 0.914254411,1.14734901 L0.914254411,31.0901318 C0.914254411,31.3125953 1.09098564,31.4874808 1.31860854,31.4874808 L23.6278186,31.4874808 C23.853621,31.4874808 24.0321727,31.3097317 24.0321727,31.0901318 L24.0321727,5.43921598 L19.2692657,0.75 Z"></path>
                </g>
                <g id="Rectangle-37-Copy">
                    <use fill="#FFFFFF" fill-rule="evenodd" xlink:href="#path-2"></use>
                    <path stroke="#0080FF" stroke-width="1.5" d="M23.7989173,5.84054233 L20.8024856,5.84054233 C19.7514031,5.84054233 18.8993324,4.98847164 18.8993324,3.93738918 L18.8993324,1 C18.8993324,0.0335016878 19.6828341,-0.75 20.6493324,-0.75 C21.1077264,-0.75 21.5478204,-0.570141529 21.8750061,-0.249089281 L25.024591,2.84145305 C25.714444,3.51837394 25.7249275,4.62636305 25.0480066,5.31621601 C24.7189173,5.6515923 24.2687865,5.84054233 23.7989173,5.84054233 Z"></path>
                    <path stroke="#DCEFFE" stroke-width="1" d="M23.7989173,4.59054233 C23.9331657,4.59054233 24.0617745,4.53655661 24.1558,4.44073481 C24.349206,4.24363397 24.3462107,3.92706565 24.1491098,3.73365968 L20.9995249,0.643117348 C20.9060433,0.551388134 20.7803022,0.5 20.6493324,0.5 C20.3731901,0.5 20.1493324,0.723857625 20.1493324,1 L20.1493324,3.93738918 C20.1493324,4.29811571 20.4417591,4.59054233 20.8024856,4.59054233 L23.7989173,4.59054233 Z"></path>
                </g>
                <path d="M3.28350543,14.8888889 L18.839061,14.8888889" id="Line" stroke="#DCEFFE" stroke-width="1.6" stroke-linecap="round"></path>
                <path d="M3.28350543,11.5555556 L13.2835054,11.5555556" id="Line" stroke="#DCEFFE" stroke-width="1.6" stroke-linecap="round"></path>
                <path d="M3.28350543,8.22222222 L18.2835054,8.22222222" id="Line" stroke="#DCEFFE" stroke-width="1.6" stroke-linecap="round"></path>
                <path d="M3.28350543,8.22222222 L8.28350543,8.22222222" id="Line" stroke="#0080FF" stroke-width="1.6" stroke-linecap="round"></path>
                <path d="M3.28350543,24.8888889 L15.5057276,24.8888889" id="Line" stroke="#DCEFFE" stroke-width="1.6" stroke-linecap="round"></path>
                <path d="M3.28350543,21.5555556 L17.7279499,21.5555556" id="Line" stroke="#DCEFFE" stroke-width="1.6" stroke-linecap="round"></path>
                <path d="M3.28350543,18.2222222 L16.6168388,18.2222222" id="Line" stroke="#DCEFFE" stroke-width="1.6" stroke-linecap="round"></path>
                <path d="M3.28350543,18.2222222 L5.50572765,18.2222222" id="Line" stroke="#0080FF" stroke-width="1.6" stroke-linecap="round"></path>
            </g>
        </g>
    </g>
</svg>