<?xml version="1.0" encoding="UTF-8"?>
<svg width="49px" height="62px" viewBox="0 0 49 62" version="1.1" xmlns="http://www.w3.org/2000/svg" xmlns:xlink="http://www.w3.org/1999/xlink">
    <!-- Generator: Sketch 47.1 (45422) - http://www.bohemiancoding.com/sketch -->
    <title>Group</title>
    <desc>Created with Sketch.</desc>
    <defs>
        <path d="M53.2377112,11 L19.4581262,11 C18.8086296,11 18.2956579,11.518956 18.2956579,12.1591206 L18.2956579,67.8683449 C18.2956579,68.5080898 18.8161127,69.0274655 19.4581262,69.0274655 L61.4454426,69.0274655 C62.0949393,69.0274655 62.6079109,68.5085095 62.6079109,67.8683449 L62.6079109,20.2252252 L53.2377112,11 Z" id="path-1"></path>
        <path d="M61.6079106,20.4692748 L54.149094,20.4692748 L54.149094,20.4692748 C53.5122251,20.4692748 52.9959408,19.9529905 52.9959408,19.3161216 L52.9959408,12 L52.9959408,12 C52.9959408,11.4477153 53.4436561,11 53.9959408,11 C54.2578802,11 54.5093625,11.1027763 54.6963258,11.2862347 L62.3082956,18.7555095 L62.3082956,18.7555095 C62.7024973,19.1423214 62.7084879,19.775458 62.3216759,20.1696597 C62.1336249,20.3613033 61.8764073,20.4692748 61.6079106,20.4692748 Z" id="path-2"></path>
    </defs>
    <g id="Web" stroke="none" stroke-width="1" fill="none" fill-rule="evenodd">
        <g id="Main" transform="translate(-696.000000, -3672.000000)">
            <g id="Use-cases" transform="translate(0.000000, 3052.000000)">
                <g id="Group-2" transform="translate(456.000000, 611.000000)">
                    <g id="Smart" transform="translate(224.000000, 0.000000)">
                        <g id="Rectangle-36">
                            <use fill="#FFFFFF" fill-rule="evenodd" xlink:href="#path-1"></use>
                            <path stroke="#0080FF" stroke-width="1.72972973" d="M53.5920066,10.1351351 L63.4727758,19.8630304 L63.4727758,67.8683449 C63.4727758,68.9884456 62.5703112,69.8923304 61.4454426,69.8923304 L19.4581262,69.8923304 C18.3391156,69.8923304 17.4307931,68.9863971 17.4307931,67.8683449 L17.4307931,12.1591206 C17.4307931,11.0390199 18.3332577,10.1351351 19.4581262,10.1351351 L53.5920066,10.1351351 Z"></path>
                            <path stroke="#DCEFFE" stroke-width="1.15315315" d="M53.0015143,11.5765766 L19.4581262,11.5765766 C19.1298516,11.5765766 18.8722345,11.8345991 18.8722345,12.1591206 L18.8722345,67.8683449 C18.8722345,68.1894599 19.134353,68.4508889 19.4581262,68.4508889 L61.4454426,68.4508889 C61.7737172,68.4508889 62.0313343,68.1928664 62.0313343,67.8683449 L62.0313343,20.4666885 L53.0015143,11.5765766 Z"></path>
                        </g>
                        <g id="Rectangle-37-Copy">
                            <use fill="#FFFFFF" fill-rule="evenodd" xlink:href="#path-2"></use>
                            <path stroke="#0080FF" stroke-width="1.72972973" d="M61.6079106,21.3341396 L54.149094,21.3341396 C53.0345734,21.3341396 52.131076,20.4306422 52.131076,19.3161216 L52.131076,12 C52.131076,10.9700636 52.9660044,10.1351351 53.9959408,10.1351351 C54.4844224,10.1351351 54.9534029,10.326799 55.3020641,10.6689242 L62.9140339,18.1381989 C63.6491668,18.8595509 63.6603384,20.0402652 62.9389865,20.7753981 C62.5882967,21.1327875 62.1086206,21.3341396 61.6079106,21.3341396 Z"></path>
                            <path stroke="#DCEFFE" stroke-width="1.15315315" d="M61.6079106,19.8926982 C61.7215984,19.8926982 61.8305104,19.8469805 61.9101356,19.7658342 C62.0739208,19.5989199 62.0713843,19.330835 61.90447,19.1670498 L54.2925002,11.6977751 C54.2133356,11.6200945 54.1068521,11.5765766 53.9959408,11.5765766 C53.7620905,11.5765766 53.5725174,11.7661497 53.5725174,12 L53.5725174,19.3161216 C53.5725174,19.6345561 53.8306595,19.8926982 54.149094,19.8926982 L61.6079106,19.8926982 Z"></path>
                        </g>
                        <path d="M23.9103098,37.8 L51.9103098,37.8" id="Line" stroke="#DCEFFE" stroke-width="1.6" stroke-linecap="round"></path>
                        <path d="M23.9103098,31.8 L41.9103098,31.8" id="Line" stroke="#DCEFFE" stroke-width="1.6" stroke-linecap="round"></path>
                        <path d="M23.9103098,25.8 L50.9103098,25.8" id="Line" stroke="#DCEFFE" stroke-width="1.6" stroke-linecap="round"></path>
                        <path d="M23.9103098,25.8 L32.9103098,25.8" id="Line" stroke="#0080FF" stroke-width="1.6" stroke-linecap="round"></path>
                        <path d="M23.9103098,55.8 L45.9103098,55.8" id="Line" stroke="#DCEFFE" stroke-width="1.6" stroke-linecap="round"></path>
                        <path d="M23.9103098,49.8 L49.9103098,49.8" id="Line" stroke="#DCEFFE" stroke-width="1.6" stroke-linecap="round"></path>
                        <path d="M23.9103098,43.8 L47.9103098,43.8" id="Line" stroke="#DCEFFE" stroke-width="1.6" stroke-linecap="round"></path>
                        <path d="M23.9103098,43.8 L27.9103098,43.8" id="Line" stroke="#0080FF" stroke-width="1.6" stroke-linecap="round"></path>
                    </g>
                </g>
            </g>
        </g>
    </g>
</svg>