<?xml version="1.0" encoding="UTF-8"?>
<svg width="75px" height="59px" viewBox="0 0 75 59" version="1.1" xmlns="http://www.w3.org/2000/svg" xmlns:xlink="http://www.w3.org/1999/xlink">
    <!-- Generator: Sketch 47.1 (45422) - http://www.bohemiancoding.com/sketch -->
    <title>Inbox</title>
    <desc>Created with Sketch.</desc>
    <defs>
        <path d="M68.1299478,49.7492137 C67.7640799,47.6862683 66.6200985,45.8878471 64.9024088,44.6863232 C64.4764217,44.3857275 63.8357235,44.094579 62.6728475,43.5672483 C59.8197648,42.2703925 53.9521366,39.5968084 43.8607094,33.2611098 C43.968065,32.717461 43.984383,32.1540588 43.8838982,31.5923742 C43.6717635,30.397721 43.0078764,29.3550833 42.0133341,28.6577013 C41.2438091,28.1200644 40.3463162,27.8366456 39.4093164,27.8366456 C38.459434,27.8366456 37.5481996,28.1355236 36.7932749,28.6680074 C35.1185274,27.5472149 33.4016965,26.3723151 31.6582414,25.1596261 L33.3390008,22.7557193 C34.0114764,23.0314085 34.7260353,23.1885771 35.4663596,23.1885771 C37.3085818,23.1885771 39.0391543,22.2893665 40.0998277,20.7795173 C41.8827896,18.228748 41.260986,14.7023309 38.7110755,12.9167924 L24.2927878,2.81935326 C23.33947,2.1520308 22.2203951,1.79904555 21.058378,1.79904555 C19.2152969,1.79904555 17.4855833,2.69997383 16.4292041,4.20896427 C15.5634885,5.4439832 15.2302567,6.94352635 15.4930632,8.42761029 C15.6802914,9.49343678 16.1638211,10.4587784 16.8749446,11.2394684 L8.04086624,23.8576173 C7.36924955,23.5836458 6.65554946,23.4239006 5.91694287,23.4239006 C4.07386177,23.4239006 2.34328935,24.3248289 1.28605131,25.8346782 C-0.498628337,28.3837298 0.124034196,31.9118645 2.67480347,33.6982618 L17.0896558,43.7922656 C18.0455502,44.4621646 19.164625,44.8125734 20.3249245,44.8125734 C22.1680056,44.8125734 23.8977191,43.9150805 24.9549572,42.4052312 C25.8206728,41.1710711 26.1521869,39.6706691 25.8919569,38.1857263 C25.7038699,37.1198998 25.2203402,36.155417 24.5092167,35.3730094 L26.1873996,32.9768322 C27.9334312,34.2075569 29.6279321,35.4236812 31.2485724,36.609746 C30.7667604,38.4038729 31.4065999,40.3869457 33.0152163,41.5137502 C33.7847413,42.0505282 34.6856696,42.3356647 35.6200928,42.3356647 C36.460902,42.3356647 37.2682161,42.0943293 37.9690336,41.6734953 C47.3811145,48.9925714 51.8986386,53.5934033 54.0921284,55.8315531 C54.9861859,56.740211 55.4757275,57.2434941 55.9025734,57.5406544 C57.2689956,58.4965487 58.8372463,58.954313 60.3926144,58.954313 C62.8669464,58.954313 65.3060659,57.7888606 66.8305155,55.61083 C68.0311807,53.8957167 68.4932392,51.8130179 68.1299478,49.7492137 Z M18.4732549,5.63722329 C19.0624225,4.79469647 20.0303407,4.29141338 21.0592368,4.29141338 C21.7068059,4.29141338 22.3311861,4.4889477 22.8628111,4.86340406 L37.2810988,14.9574079 C38.7050636,15.9553856 39.0528958,17.9264346 38.0566357,19.3495405 C37.4657505,20.1912085 36.4978323,20.6944916 35.4663596,20.6944916 C34.8196494,20.6944916 34.1944103,20.4978161 33.6602088,20.1242186 L26.451065,15.0776461 L19.2410622,10.029356 C18.5531275,9.54582631 18.0919278,8.82267893 17.9459242,7.99389363 C17.8024971,7.16510832 17.9888664,6.32859342 18.4732549,5.63722329 Z M22.9126241,40.9761133 C22.3217388,41.8177813 21.3555383,42.3193467 20.3249245,42.3193467 C19.6782143,42.3193467 19.0529752,42.1243889 18.5196325,41.7516502 L4.10478019,31.654211 C2.6790977,30.6570922 2.33212437,28.686902 3.32838442,27.2629372 C3.91841085,26.4212692 4.88547018,25.9179861 5.91608402,25.9179861 C6.56365306,25.9179861 7.18717444,26.1146616 7.7205171,26.4874003 L8.65236379,27.1418401 L22.1413814,36.5865572 C22.8293161,37.0700868 23.2887981,37.7915165 23.4339429,38.6203018 C23.5808054,39.4490871 23.3952949,40.285602 22.9126241,40.9761133 Z M26.0783263,28.7839515 L24.1459253,31.5434201 L22.547615,33.8262297 L13.5967337,27.5583798 L10.1716604,25.160485 L18.8365463,12.7871069 L20.764653,14.1363522 L31.2125009,21.4519928 L26.0783263,28.7839515 Z M32.4432256,34.400797 C30.8887164,33.2628275 29.2826765,32.1068223 27.6173763,30.9327814 L28.2340269,30.0524654 L30.2282647,27.2071123 C31.8952826,28.3665529 33.5313821,29.4796158 35.1348455,30.5566073 L32.4432256,34.400797 Z M37.3051465,38.9672751 C36.6773309,39.8621915 35.3435448,40.1018092 34.4443342,39.4731348 C33.5167817,38.8221304 33.2891878,37.539875 33.9384746,36.6106048 L37.7242628,31.205894 C38.1090253,30.6570922 38.7402762,30.3290134 39.4110341,30.3290134 C39.8310092,30.3290134 40.236384,30.4569813 40.5859339,30.7008932 C41.0333921,31.0152305 41.3331289,31.4858775 41.4301784,32.0260909 C41.5229336,32.5671632 41.404413,33.110812 41.0883581,33.5599878 L37.3051465,38.9672751 Z M64.7881824,54.1842886 C63.0919638,56.6002192 59.7501984,57.1919634 57.3316912,55.4991801 C57.0929324,55.3334231 56.5552955,54.7820447 55.8716549,54.0855215 C53.6541175,51.8276183 49.1108281,47.1993033 39.7133475,39.8742153 L42.7648233,35.5172953 C52.8579683,41.8401113 58.7625268,44.5291545 61.6422336,45.838893 C62.5302792,46.2442678 63.2353909,46.5628992 63.4724321,46.730374 C64.6438965,47.5479943 65.4245865,48.7744248 65.6745103,50.1829304 C65.9227165,51.5905771 65.6066616,53.0093888 64.7881824,54.1842886 Z" id="path-1"></path>
    </defs>
    <g id="Web" stroke="none" stroke-width="1" fill="none" fill-rule="evenodd">
        <g id="Main" transform="translate(-883.000000, -3676.000000)">
            <g id="Use-cases" transform="translate(0.000000, 3052.000000)">
                <g id="Group-2" transform="translate(456.000000, 611.000000)">
                    <g id="Arbitration" transform="translate(424.000000, 0.000000)">
                        <g id="Group" transform="translate(7.942006, 12.474202)">
                            <path d="M68.8251554,48.8807114 C68.4592875,46.817766 67.3153061,45.0193448 65.5976164,43.8178209 C65.1716293,43.5172251 64.530931,43.2260767 63.3680551,42.698746 C60.5149724,41.4018902 54.6473442,38.7283061 44.555917,32.3926075 C44.6632726,31.8489587 44.6795906,31.2855565 44.5791058,30.7238719 C44.3669711,29.5292187 43.703084,28.486581 42.7085416,27.789199 C41.9390166,27.2515621 41.0415237,26.9681433 40.104524,26.9681433 C39.1546415,26.9681433 38.2434071,27.2670213 37.4884825,27.7995051 C35.813735,26.6787126 34.0969041,25.5038128 32.353449,24.2911238 L34.0342084,21.887217 C34.7066839,22.1629062 35.4212429,22.3200748 36.1615672,22.3200748 C38.0037894,22.3200748 39.7343618,21.4208642 40.7950353,19.9110149 C42.5779972,17.3602457 41.9561935,13.8338286 39.4062831,12.0482901 L24.9879954,1.95085095 C24.0346775,1.28352848 22.9156027,0.930543241 21.7535856,0.930543241 C19.9105045,0.930543241 18.1807909,1.83147151 17.1244117,3.34046196 C16.2586961,4.57548089 15.9254643,6.07502403 16.1882708,7.55910798 C16.375499,8.62493446 16.8590286,9.5902761 17.5701522,10.3709661 L8.73607382,22.989115 C8.06445712,22.7151435 7.35075703,22.5553983 6.61215044,22.5553983 C4.76906934,22.5553983 3.03849692,23.4563266 1.98125889,24.9661759 C0.196579238,27.5152275 0.819241771,31.0433622 3.37001105,32.8297595 L17.7848634,42.9237633 C18.7407577,43.5936623 19.8598326,43.944071 21.020132,43.944071 C22.8632131,43.944071 24.5929267,43.0465782 25.6501648,41.5367289 C26.5158804,40.3025688 26.8473945,38.8021668 26.5871645,37.317224 C26.3990775,36.2513975 25.9155478,35.2869147 25.2044243,34.504507 L26.8826072,32.1083298 C28.6286388,33.3390545 30.3231397,34.5551789 31.94378,35.7412437 C31.461968,37.5353706 32.1018074,39.5184434 33.7104239,40.6452479 C34.4799489,41.1820259 35.3808772,41.4671624 36.3153004,41.4671624 C37.1561095,41.4671624 37.9634237,41.225827 38.6642411,40.804993 C48.0763221,48.124069 52.5938461,52.724901 54.7873359,54.9630508 C55.6813935,55.8717087 56.170935,56.3749917 56.5977809,56.6721521 C57.9642031,57.6280464 59.5324539,58.0858107 61.0878219,58.0858107 C63.562154,58.0858107 66.0012735,56.9203582 67.5257231,54.7423276 C68.7263882,53.0272144 69.1884468,50.9445156 68.8251554,48.8807114 Z M19.1684625,4.76872098 C19.7576301,3.92619416 20.7255483,3.42291106 21.7544444,3.42291106 C22.4020134,3.42291106 23.0263937,3.62044539 23.5580186,3.99490175 L37.9763064,14.0889056 C39.4002712,15.0868833 39.7481034,17.0579323 38.7518433,18.4810382 C38.160958,19.3227062 37.1930399,19.8259893 36.1615672,19.8259893 C35.514857,19.8259893 34.8896179,19.6293138 34.3554164,19.2557163 L27.1462725,14.2091438 L19.9362698,9.16085367 C19.2483351,8.677324 18.7871354,7.95417662 18.6411317,7.12539131 C18.4977046,6.29660601 18.684074,5.4600911 19.1684625,4.76872098 Z M23.6078316,40.107611 C23.0169464,40.949279 22.0507459,41.4508444 21.020132,41.4508444 C20.3734219,41.4508444 19.7481828,41.2558866 19.2148401,40.8831479 L4.79998776,30.7857087 C3.37430527,29.7885898 3.02733194,27.8183997 4.02359199,26.3944349 C4.61361842,25.5527669 5.58067775,25.0494838 6.6112916,25.0494838 C7.25886063,25.0494838 7.88238201,25.2461593 8.41572468,25.618898 L9.34757137,26.2733378 L22.836589,35.7180548 C23.5245237,36.2015845 23.9840057,36.9230142 24.1291505,37.7517995 C24.276013,38.5805848 24.0905025,39.4170997 23.6078316,40.107611 Z M26.7735339,27.9154492 L24.8411329,30.6749177 L23.2428226,32.9577274 L14.2919413,26.6898775 L10.8668679,24.2919826 L19.5317539,11.9186046 L21.4598606,13.2678499 L31.9077085,20.5834905 L26.7735339,27.9154492 Z M33.1384332,33.5322946 C31.583924,32.3943252 29.9778841,31.23832 28.3125839,30.064279 L28.9292345,29.183963 L30.9234723,26.33861 C32.5904902,27.4980506 34.2265897,28.6111135 35.830053,29.688105 L33.1384332,33.5322946 Z M38.000354,38.0987728 C37.3725384,38.9936892 36.0387523,39.2333069 35.1395418,38.6046325 C34.2119893,37.9536281 33.9843954,36.6713727 34.6336821,35.7421025 L38.4194703,30.3373917 C38.8042328,29.7885898 39.4354838,29.4605111 40.1062417,29.4605111 C40.5262168,29.4605111 40.9315916,29.588479 41.2811415,29.8323909 C41.7285996,30.1467282 42.0283365,30.6173751 42.125386,31.1575886 C42.2181412,31.6986608 42.0996206,32.2423096 41.7835657,32.6914855 L38.000354,38.0987728 Z M65.48339,53.3157863 C63.7871714,55.7317169 60.445406,56.3234611 58.0268988,54.6306778 C57.7881399,54.4649207 57.250503,53.9135423 56.5668625,53.2170191 C54.3493251,50.959116 49.8060357,46.330801 40.4085551,39.005713 L43.4600309,34.648793 C53.5531759,40.9716089 59.4577344,43.6606522 62.3374412,44.9703907 C63.2254868,45.3757655 63.9305985,45.6943969 64.1676396,45.8618716 C65.3391041,46.679492 66.119794,47.9059224 66.3697179,49.314428 C66.6179241,50.7220748 66.3018692,52.1408865 65.48339,53.3157863 Z" id="Shape-Copy" stroke="#FFFFFF" stroke-width="0.5" fill="#0080FF" fill-rule="nonzero"></path>
                            <g id="Shape" style="mix-blend-mode: darken;" fill-rule="nonzero">
                                <use fill="#DCEFFE" fill-rule="evenodd" style="mix-blend-mode: darken;" xlink:href="#path-1"></use>
                                <use stroke="#FFFFFF" stroke-width="0.5" xlink:href="#path-1"></use>
                            </g>
                        </g>
                        <g id="Group" transform="translate(4.000000, 62.000000)" stroke="#0080FF" fill="#0080FF">
                            <path d="M10.8572638,0 C10.383797,0 10,0.390927788 10,0.873191396 L10,6.11233978 C10,6.59460338 10.383797,6.98553117 10.8572638,6.98553117 C11.3307306,6.98553117 11.7145277,6.59460338 11.7145277,6.11233978 L11.7145277,0.873191396 C11.7145277,0.390927788 11.3307306,0 10.8572638,0 Z" id="Path" stroke-width="0.5"></path>
                            <path d="M20.3671956,5.00030375 C20.2135311,4.99593779 20.0522369,5.03872417 19.8849847,5.12307446 L15.4245553,7.74264865 C15.014526,7.98382411 14.8797213,8.51201759 15.1164547,8.92966503 C15.3531881,9.34731248 15.871747,9.48457816 16.2818191,9.24349002 L20.7422486,6.62391583 C21.1523207,6.38269671 21.2870397,5.85454689 21.0503492,5.43689945 C20.8566933,5.14228467 20.6233032,5.00659073 20.3671956,5.00030375 Z" id="Path" stroke-width="0.5"></path>
                            <path d="M0.759393007,5.00455773 C0.494327031,5.03249985 0.275681891,5.19290511 0.116445134,5.42753164 C-0.12024541,5.84517908 0.0144736014,6.3733289 0.424545755,6.61454802 L4.88497519,9.23412221 C5.29500448,9.47521036 5.81360624,9.33794467 6.05033965,8.92029723 C6.28707305,8.50264978 6.15231118,7.9744563 5.74223902,7.73328084 L1.28180959,5.11370665 C1.09694064,5.015167 0.918458311,4.98792343 0.759393007,5.00455773 Z" id="Path" stroke-width="0.5"></path>
                        </g>
                    </g>
                </g>
            </g>
        </g>
    </g>
</svg>