<?xml version="1.0" encoding="UTF-8"?>
<svg width="50px" height="50px" viewBox="0 0 50 50" version="1.1" xmlns="http://www.w3.org/2000/svg" xmlns:xlink="http://www.w3.org/1999/xlink">
    <!-- Generator: Sketch 47.1 (45422) - http://www.bohemiancoding.com/sketch -->
    <title>hammer</title>
    <desc>Created with Sketch.</desc>
    <defs>
        <path d="M40.1313391,29.3043314 C39.9158279,28.0891717 39.2419758,27.0298278 38.230186,26.3220808 C37.9792621,26.1450175 37.6018645,25.9735192 36.9168828,25.6628997 C35.2362998,24.8989983 31.7800257,23.3241474 25.8357603,19.5921606 C25.8989972,19.2719291 25.9086092,18.940062 25.8494195,18.6092067 C25.7244634,17.9055069 25.3334067,17.2913505 24.7475803,16.8805638 C24.2942985,16.5638735 23.7656383,16.3969282 23.2137069,16.3969282 C22.6541871,16.3969282 22.1174326,16.5729797 21.672751,16.8866345 C20.6862559,16.2264416 19.6749719,15.5343774 18.6480052,14.8200537 L19.6380416,13.4040538 C20.0341573,13.5664461 20.4550619,13.6590249 20.8911433,13.6590249 C21.9762879,13.6590249 22.9956662,13.1293529 23.6204464,12.2399896 C24.6706843,10.7374817 24.3044164,8.66027713 22.8024143,7.60852158 L14.3094503,1.66071494 C13.747907,1.26763458 13.0887259,1.05971176 12.40425,1.05971176 C11.3185995,1.05971176 10.2997272,1.59039554 9.6774764,2.47925293 C9.16753432,3.20672983 8.97124708,4.09002237 9.12605093,4.9642088 C9.23633603,5.5920244 9.52115487,6.1606503 9.94003587,6.62050879 L4.73640066,14.053117 C4.34079083,13.8917366 3.92039215,13.7976401 3.48532251,13.7976401 C2.399672,13.7976401 1.38029373,14.3283239 0.757537073,15.2176872 C-0.293712582,16.7191833 0.0730612388,18.7973996 1.57556917,19.8496611 L10.0665096,25.7954441 C10.6295707,26.1900422 11.2887517,26.3964473 11.9722158,26.3964473 C13.0578663,26.3964473 14.0767387,25.8677871 14.6994953,24.9784238 C15.2094374,24.2514528 15.4047129,23.3676544 15.2514267,22.4929621 C15.1406357,21.8651465 14.8558169,21.2970265 14.4369359,20.8361562 L15.4254545,19.4247094 C16.4539389,20.1496568 17.4520696,20.866004 18.4066933,21.5646449 C18.1228863,22.6214594 18.499778,23.7895708 19.4473192,24.4533049 C19.9006011,24.7694892 20.4312848,24.9374464 20.9816985,24.9374464 C21.4769696,24.9374464 21.9525109,24.7952899 22.3653211,24.5474014 C27.9094236,28.8586379 30.5704309,31.568717 31.8624866,32.8870792 C32.3891232,33.422316 32.6774833,33.7187705 32.9289131,33.8938101 C33.7337919,34.4568712 34.657556,34.7265132 35.5737317,34.7265132 C37.031215,34.7265132 38.4679566,34.0400138 39.3659201,32.7570642 C40.0731612,31.7467921 40.3453327,30.5199969 40.1313391,29.3043314 Z M10.8815063,3.32055619 C11.2285502,2.82427326 11.7986938,2.52781884 12.4047559,2.52781884 C12.7862007,2.52781884 13.1539863,2.64417467 13.4671353,2.86474486 L21.9600993,8.81052792 C22.7988731,9.39837782 23.0037605,10.5594067 22.4169224,11.3976746 C22.0688667,11.8934516 21.4987231,12.189906 20.8911433,12.189906 C20.5102044,12.189906 20.1419129,12.0740561 19.8272463,11.8539918 L15.5807643,8.88135321 L11.3337764,5.90770284 C10.9285546,5.62288399 10.656889,5.19692047 10.5708868,4.70873186 C10.4864024,4.22054326 10.5961816,3.7278016 10.8815063,3.32055619 Z M13.4964772,24.1366147 C13.1484215,24.6323917 12.5792897,24.9278344 11.9722158,24.9278344 C11.5912769,24.9278344 11.2229854,24.8129962 10.9088246,24.5934378 L2.41788422,18.6456312 C1.57809864,18.0582872 1.37371709,16.8977642 1.96055521,16.0589904 C2.30810502,15.5632134 2.87774271,15.266759 3.48481662,15.266759 C3.86626139,15.266759 4.23354111,15.3826089 4.54770186,15.6021673 L5.09659785,15.9876592 L13.0421836,21.5509857 C13.4474054,21.8358046 13.7180592,22.2607563 13.8035554,22.7489449 C13.8900634,23.2371335 13.7807901,23.7298752 13.4964772,24.1366147 Z M15.3612059,16.9549303 L14.2229423,18.5803707 L13.2814719,19.9250394 L8.00903494,16.2330183 L5.99152597,14.8205596 L11.0954999,7.53213144 L12.231234,8.32689237 L18.3854458,12.6361053 L15.3612059,16.9549303 Z M19.1103932,20.2634831 C18.1947234,19.5931724 17.2486999,18.9122378 16.2677696,18.2206794 L16.6310022,17.7021371 L17.8056902,16.0261072 C18.7876322,16.7090654 19.7513621,17.3647052 20.6958679,17.9990975 L19.1103932,20.2634831 Z M21.9742644,22.9533265 C21.6044552,23.480469 20.8188003,23.6216137 20.2891284,23.2512986 C19.7427618,22.8678302 19.6086997,22.1125291 19.9911562,21.5651508 L22.2211411,18.381554 C22.447782,18.0582872 22.8196148,17.8650353 23.2147187,17.8650353 C23.4621013,17.8650353 23.7008837,17.9404136 23.906783,18.0840878 C24.1703542,18.2692453 24.3469116,18.5464758 24.4040777,18.8646837 C24.4587143,19.1833975 24.3889008,19.503629 24.2027315,19.768212 L21.9742644,22.9533265 Z M38.162902,31.9167727 C37.1637595,33.3398552 35.1953223,33.6884168 33.7707222,32.6912979 C33.6300834,32.5936602 33.3133932,32.2688756 32.9107009,31.8585948 C31.6044802,30.5285971 28.928296,27.8023293 23.3927937,23.4875515 L25.1902384,20.9211465 C31.1355156,24.645545 34.6135432,26.229502 36.3098089,27.0009918 C36.8329042,27.2397742 37.2482439,27.4274612 37.3878709,27.5261107 C38.0779116,28.0077227 38.5377701,28.7301406 38.6849855,29.5598083 C38.8311892,30.3889701 38.6450198,31.2247085 38.162902,31.9167727 Z" id="path-1"></path>
    </defs>
    <g id="Symbols" stroke="none" stroke-width="1" fill="none" fill-rule="evenodd">
        <g id="hammer">
            <g id="Group-2" transform="translate(4.000000, 7.000000)">
                <g id="Group" transform="translate(2.322004, 0.279324)" fill-rule="nonzero">
                    <path d="M40.540845,28.7927478 C40.3253337,27.5775882 39.6514817,26.5182442 38.6396918,25.8104972 C38.3887679,25.633434 38.0113703,25.4619356 37.3263886,25.1513161 C35.6458057,24.3874148 32.1895315,22.8125639 26.2452662,19.080577 C26.308503,18.7603455 26.318115,18.4284785 26.2589253,18.0976232 C26.1339693,17.3939233 25.7429125,16.7797669 25.1570862,16.3689802 C24.7038043,16.05229 24.1751441,15.8853447 23.6232128,15.8853447 C23.063693,15.8853447 22.5269385,16.0613961 22.0822568,16.375051 C21.0957617,15.7148581 20.0844778,15.0227938 19.0575111,14.3084702 L20.0475474,12.8924703 C20.4436631,13.0548626 20.8645677,13.1474413 21.3006492,13.1474413 C22.3857938,13.1474413 23.405172,12.6177693 24.0299523,11.7284061 C25.0801901,10.2258981 24.7139222,8.14869357 23.2119202,7.09693802 L14.7189562,1.14913138 C14.1574128,0.756051025 13.4982317,0.548128211 12.8137559,0.548128211 C11.7281054,0.548128211 10.709233,1.07881199 10.0869822,1.96766937 C9.57704015,2.69514627 9.38075292,3.57843881 9.53555676,4.45262525 C9.64584186,5.08044085 9.9306607,5.64906675 10.3495417,6.10892523 L5.14590649,13.5415335 C4.75029666,13.380153 4.32989798,13.2860565 3.89482834,13.2860565 C2.80917783,13.2860565 1.78979956,13.8167403 1.1670429,14.7061036 C0.11579325,16.2075997 0.482567071,18.2858161 1.985075,19.3380775 L10.4760154,25.2838606 C11.0390765,25.6784586 11.6982576,25.8848638 12.3817216,25.8848638 C13.4673721,25.8848638 14.4862445,25.3562036 15.1090012,24.4668403 C15.6189432,23.7398693 15.8142187,22.8560708 15.6609325,21.9813785 C15.5501415,21.3535629 15.2653227,20.7854429 14.8464417,20.3245726 L15.8349604,18.9131258 C16.8634448,19.6380732 17.8615754,20.3544204 18.8161992,21.0530613 C18.5323921,22.1098758 18.9092838,23.2779872 19.856825,23.9417214 C20.3101069,24.2579057 20.8407907,24.4258628 21.3912043,24.4258628 C21.8864755,24.4258628 22.3620167,24.2837063 22.774827,24.0358178 C28.3189295,28.3470544 30.9799368,31.0571335 32.2719924,32.3754957 C32.798629,32.9107325 33.0869891,33.2071869 33.3384189,33.3822266 C34.1432977,33.9452876 35.0670619,34.2149296 35.9832376,34.2149296 C37.4407209,34.2149296 38.8774624,33.5284302 39.7754259,32.2454807 C40.482667,31.2352085 40.7548385,30.0084133 40.540845,28.7927478 Z M11.2910122,2.80897263 C11.6380561,2.31268971 12.2081997,2.01623528 12.8142618,2.01623528 C13.1957065,2.01623528 13.5634922,2.13259112 13.8766411,2.35316131 L22.3696051,8.29894437 C23.2083789,8.88679427 23.4132664,10.0478231 22.8264282,10.886091 C22.4783725,11.381868 21.908229,11.6783225 21.3006492,11.6783225 C20.9197103,11.6783225 20.5514188,11.5624725 20.2367521,11.3424082 L15.9902701,8.36976965 L11.7432822,5.39611928 C11.3380604,5.11130044 11.0663948,4.68533691 10.9803927,4.19714831 C10.8959082,3.70895971 11.0056874,3.21621805 11.2910122,2.80897263 Z M13.905983,23.6250311 C13.5579273,24.1208082 12.9887955,24.4162508 12.3817216,24.4162508 C12.0007827,24.4162508 11.6324912,24.3014127 11.3183305,24.0818543 L2.82739005,18.1340476 C1.98760447,17.5467036 1.78322292,16.3861806 2.37006104,15.5474069 C2.71761085,15.0516298 3.28724854,14.7551754 3.89432245,14.7551754 C4.27576722,14.7551754 4.64304694,14.8710253 4.95720769,15.0905837 L5.50610368,15.4760757 L13.4516894,21.0394022 C13.8569112,21.324221 14.127565,21.7491728 14.2130612,22.2373614 C14.2995693,22.72555 14.190296,23.2182916 13.905983,23.6250311 Z M15.7707117,16.4433468 L14.6324481,18.0687872 L13.6909777,19.4134559 L8.41854077,15.7214347 L6.4010318,14.3089761 L11.5050057,7.02054789 L12.6407398,7.81530882 L18.7949516,12.1245218 L15.7707117,16.4433468 Z M19.519899,19.7518996 C18.6042292,19.0815888 17.6582057,18.4006542 16.6772754,17.7090959 L17.040508,17.1905536 L18.215196,15.5145237 C19.1971381,16.1974818 20.1608679,16.8531217 21.1053737,17.4875139 L19.519899,19.7518996 Z M22.3837702,22.4417429 C22.013961,22.9688854 21.2283062,23.1100301 20.6986342,22.739715 C20.1522677,22.3562467 20.0182055,21.6009455 20.4006621,21.0535672 L22.6306469,17.8699705 C22.8572878,17.5467036 23.2291206,17.3534517 23.6242245,17.3534517 C23.8716072,17.3534517 24.1103896,17.4288301 24.3162888,17.5725042 C24.5798601,17.7576618 24.7564174,18.0348922 24.8135835,18.3531001 C24.8682202,18.6718139 24.7984067,18.9920454 24.6122373,19.2566285 L22.3837702,22.4417429 Z M38.5724078,31.4051892 C37.5732653,32.8282716 35.6048282,33.1768332 34.1802281,32.1797143 C34.0395893,32.0820766 33.722899,31.7572921 33.3202067,31.3470113 C32.013986,30.0170135 29.3378018,27.2907458 23.8022996,22.9759679 L25.5997442,20.409563 C31.5450214,24.1339614 35.023049,25.7179184 36.7193147,26.4894082 C37.24241,26.7281906 37.6577498,26.9158776 37.7973768,27.0145271 C38.4874175,27.4961391 38.9472759,28.2185571 39.0944914,29.0482247 C39.240695,29.8773865 39.0545257,30.7131249 38.5724078,31.4051892 Z" id="Shape-Copy" fill="#0080FF"></path>
                    <g id="Shape" style="mix-blend-mode: darken;">
                        <use fill="#DCEFFE" fill-rule="evenodd" style="mix-blend-mode: darken;" xlink:href="#path-1"></use>
                        <use stroke="#DCEFFE" stroke-width="0.5" xlink:href="#path-1"></use>
                    </g>
                </g>
                <g id="Group" transform="translate(0.000000, 29.452055)" stroke="#0080FF" stroke-width="0.5" fill="#0080FF">
                    <path d="M6.39537459,0 C6.11648317,0 5.89041096,0.230272533 5.89041096,0.514345617 L5.89041096,3.60041932 C5.89041096,3.8844924 6.11648317,4.11476494 6.39537459,4.11476494 C6.674266,4.11476494 6.90033821,3.8844924 6.90033821,3.60041932 L6.90033821,0.514345617 C6.90033821,0.230272533 6.674266,0 6.39537459,0 Z" id="Path"></path>
                    <path d="M11.9971152,2.9453844 C11.9066005,2.94281267 11.8115916,2.96801561 11.7130732,3.01770139 L9.08569696,4.56073824 C8.84417285,4.7028005 8.76476732,5.01392817 8.90421303,5.25993968 C9.04365873,5.50595119 9.34911123,5.58680632 9.59066058,5.44479549 L12.2180368,3.90175864 C12.4595862,3.75967066 12.5389412,3.44856872 12.3995208,3.20255721 C12.2854495,3.029017 12.1479731,2.94908769 11.9971152,2.9453844 Z" id="Path"></path>
                    <path d="M0.447313689,2.94789017 C0.291178936,2.96434923 0.162387963,3.05883452 0.0685909694,3.19703918 C-0.0708294879,3.44305069 0.00852554602,3.75415264 0.250074897,3.89624062 L2.87745114,5.43927747 C3.11897524,5.58128829 3.42445299,5.50043316 3.5638987,5.25442165 C3.7033444,5.00841014 3.62396412,4.69728248 3.38241477,4.55522022 L0.755038523,3.01218337 C0.646143117,2.95413947 0.54100969,2.93809188 0.447313689,2.94789017 Z" id="Path"></path>
                </g>
            </g>
        </g>
    </g>
</svg>