<?xml version="1.0" encoding="UTF-8"?>
<svg width="27px" height="17px" viewBox="0 0 27 17" version="1.1" xmlns="http://www.w3.org/2000/svg" xmlns:xlink="http://www.w3.org/1999/xlink">
    <!-- Generator: Sketch 46.2 (44496) - http://www.bohemiancoding.com/sketch -->
    <title>icon_usa</title>
    <desc>Created with Sketch.</desc>
    <defs></defs>
    <g id="Page-1" stroke="none" stroke-width="1" fill="none" fill-rule="evenodd" opacity="0.800215127">
        <g id="hwr" transform="translate(-165.000000, -386.000000)">
            <g id="icon_usa" transform="translate(165.000000, 386.000000)">
                <g id="united-states-(1)">
                    <path d="M25.9929413,16.9860863 L0.456038265,16.9860863 C0.204204719,16.9860863 0,16.7860833 0,16.5394315 L0,0.460619048 C0,0.213967262 0.204204719,0.0139642857 0.456038265,0.0139642857 L25.992993,0.0139642857 C26.2448265,0.0139642857 26.4490313,0.213967262 26.4490313,0.460619048 L26.4490313,16.5394315 C26.4489796,16.7861339 26.2447749,16.9860863 25.9929413,16.9860863 Z" id="Shape" fill="#F5F5F5" fill-rule="nonzero"></path>
                    <g id="Group" fill-rule="nonzero" fill="#FF4B55">
                        <path d="M26.4489796,1.3195744 L0,1.3195744 L0,0.460619048 C0,0.213967262 0.204204719,0.0139642857 0.456038265,0.0139642857 L25.992993,0.0139642857 C26.2448265,0.0139642857 26.4490313,0.213967262 26.4490313,0.460619048 L26.4489796,1.3195744 L26.4489796,1.3195744 Z" id="Shape"></path>
                        <rect id="Rectangle-path" x="0" y="5.23615179" width="26.4489796" height="1.30555952"></rect>
                        <rect id="Rectangle-path" x="0" y="2.62493155" width="26.4489796" height="1.30555952"></rect>
                        <path d="M26.4489796,9.15283036 L0.456038265,9.15283036 C0.204204719,9.15283036 0,8.95282738 0,8.7061756 L0,7.84722024 L26.4489796,7.84722024 L26.4489796,9.15283036 Z" id="Shape"></path>
                        <rect id="Rectangle-path" x="0" y="13.0698125" width="26.4489796" height="1.30555952"></rect>
                        <path d="M25.9929413,16.9860863 L0.456038265,16.9860863 C0.204204719,16.9860863 0,16.7860833 0,16.5394315 L0,15.6805268 L26.4489796,15.6805268 L26.4489796,16.5394821 C26.4489796,16.7861339 26.2447749,16.9860863 25.9929413,16.9860863 Z" id="Shape"></path>
                        <rect id="Rectangle-path" x="0" y="10.4585923" width="26.4489796" height="1.30555952"></rect>
                    </g>
                    <path d="M11.8564267,0.014014881 L0.456038265,0.014014881 C0.204204719,0.014014881 0,0.213967262 0,0.460619048 L0,8.706125 C0,8.95277679 0.204204719,9.15277976 0.456038265,9.15277976 L11.8564783,9.15277976 C12.1083119,9.15277976 12.3125166,8.95277679 12.3125166,8.706125 L12.3125166,0.460619048 C12.3124649,0.213967262 12.1082602,0.014014881 11.8564267,0.014014881 Z" id="Shape" fill="#41479B" fill-rule="nonzero"></path>
                    <g id="Group" transform="translate(0.723214, 0.961310)" fill-rule="nonzero" fill="#F5F5F5">
                        <path d="M0.557339923,0.0778154762 L0.658279974,0.374303571 L0.977372449,0.376681548 C1.01869898,0.377035714 1.03579783,0.428642857 1.00258163,0.452675595 L0.745892219,0.638360119 L0.842183036,0.936315476 C0.854684311,0.974869048 0.809793367,1.00684524 0.776163903,0.983267857 L0.516581633,0.801580357 L0.256999362,0.983318452 C0.223369898,1.00684524 0.17858227,0.974919643 0.19098023,0.936366071 L0.287271046,0.638410714 L0.0305816327,0.45272619 C-0.00263456633,0.428642857 0.0144642857,0.37708631 0.0557908163,0.376732143 L0.374883291,0.374354167 L0.475823342,0.0778660714 C0.488841199,0.0394136905 0.54421875,0.0394136905 0.557339923,0.0778154762 Z" id="Shape"></path>
                        <path d="M0.557339923,1.6287619 L0.658279974,1.92525 L0.977372449,1.92762798 C1.01869898,1.92798214 1.03579783,1.97958929 1.00258163,2.00362202 L0.745892219,2.18930655 L0.842183036,2.4872619 C0.854684311,2.52581548 0.809793367,2.55779167 0.776163903,2.53421429 L0.516581633,2.35252679 L0.256999362,2.53426488 C0.223369898,2.55779167 0.17858227,2.52586607 0.19098023,2.4873125 L0.287271046,2.18935714 L0.0305816327,2.00367262 C-0.00263456633,1.97958929 0.0144642857,1.92803274 0.0557908163,1.92767857 L0.374883291,1.9253006 L0.475823342,1.6288125 C0.488841199,1.59041071 0.54421875,1.59041071 0.557339923,1.6287619 Z" id="Shape"></path>
                        <path d="M0.557339923,3.17970833 L0.658279974,3.47619643 L0.977372449,3.4785744 C1.01869898,3.47892857 1.03579783,3.53053571 1.00258163,3.55456845 L0.745892219,3.74025298 L0.842183036,4.03820833 C0.854684311,4.0767619 0.809793367,4.1087381 0.776163903,4.08516071 L0.516581633,3.90347321 L0.256999362,4.08521131 C0.223369898,4.1087381 0.17858227,4.0768125 0.19098023,4.03825893 L0.287271046,3.74030357 L0.0305816327,3.55461905 C-0.00263456633,3.53053571 0.0144642857,3.47897917 0.0557908163,3.478625 L0.374883291,3.47624702 L0.475823342,3.17975893 C0.488841199,3.14135714 0.54421875,3.14135714 0.557339923,3.17970833 Z" id="Shape"></path>
                        <path d="M0.557339923,4.73070536 L0.658279974,5.02719345 L0.977372449,5.02957143 C1.01869898,5.0299256 1.03579783,5.08153274 1.00258163,5.10556548 L0.745892219,5.29125 L0.842183036,5.58920536 C0.854684311,5.62775893 0.809793367,5.65973512 0.776163903,5.63615774 L0.516581633,5.45447024 L0.256999362,5.63620833 C0.223369898,5.65973512 0.17858227,5.62780952 0.19098023,5.58925595 L0.287271046,5.2913006 L0.0305816327,5.10561607 C-0.00263456633,5.08153274 0.0144642857,5.02997619 0.0557908163,5.02962202 L0.374883291,5.02724405 L0.475823342,4.73075595 C0.488841199,4.69230357 0.54421875,4.69230357 0.557339923,4.73070536 Z" id="Shape"></path>
                        <path d="M0.557339923,6.28165179 L0.658279974,6.57813988 L0.977372449,6.58051786 C1.01869898,6.58087202 1.03579783,6.63247917 1.00258163,6.6565119 L0.745892219,6.84219643 L0.842183036,7.14015179 C0.854684311,7.17870536 0.809793367,7.21068155 0.776163903,7.18710417 L0.516581633,7.00541667 L0.256999362,7.18715476 C0.223369898,7.21068155 0.17858227,7.17875595 0.19098023,7.14020238 L0.287271046,6.84224702 L0.0305816327,6.6565625 C-0.00263456633,6.63247917 0.0144642857,6.58092262 0.0557908163,6.58056845 L0.374883291,6.57819048 L0.475823342,6.28170238 C0.488841199,6.2431994 0.54421875,6.2431994 0.557339923,6.28165179 Z" id="Shape"></path>
                        <path d="M1.7864426,0.83821131 L1.88738265,1.1346994 L2.20647513,1.13707738 C2.24780166,1.13743155 2.26490051,1.18903869 2.23168431,1.21307143 L1.9749949,1.39875595 L2.07128571,1.69671131 C2.08378699,1.73526488 2.03889605,1.76724107 2.00526658,1.74366369 L1.74568431,1.5619256 L1.48610204,1.74366369 C1.45247258,1.76719048 1.40768495,1.73526488 1.42008291,1.69671131 L1.51637372,1.39875595 L1.25968431,1.21307143 C1.22646811,1.1889881 1.24356696,1.13743155 1.28489349,1.13707738 L1.60398597,1.1346994 L1.70492602,0.83821131 C1.71789222,0.799860119 1.77337309,0.799860119 1.7864426,0.83821131 Z" id="Shape"></path>
                        <path d="M1.7864426,2.38920833 L1.88738265,2.68569643 L2.20647513,2.6880744 C2.24780166,2.68842857 2.26490051,2.74003571 2.23168431,2.76406845 L1.9749949,2.94975298 L2.07128571,3.24770833 C2.08378699,3.2862619 2.03889605,3.3182381 2.00526658,3.29466071 L1.74568431,3.11292262 L1.48610204,3.29466071 C1.45247258,3.3181875 1.40768495,3.2863125 1.42008291,3.24770833 L1.51637372,2.94975298 L1.25968431,2.76406845 C1.22646811,2.73998512 1.24356696,2.68842857 1.28489349,2.6880744 L1.60398597,2.68569643 L1.70492602,2.38920833 C1.71789222,2.35080655 1.77337309,2.35080655 1.7864426,2.38920833 Z" id="Shape"></path>
                        <path d="M1.7864426,3.94015476 L1.88738265,4.23664286 L2.20647513,4.23902083 C2.24780166,4.239375 2.26490051,4.29098214 2.23168431,4.31501488 L1.9749949,4.5006994 L2.07128571,4.79865476 C2.08378699,4.83720833 2.03889605,4.86918452 2.00526658,4.84560714 L1.74568431,4.66386905 L1.48610204,4.84560714 C1.45247258,4.86913393 1.40768495,4.83720833 1.42008291,4.79865476 L1.51637372,4.5006994 L1.25968431,4.31501488 C1.22646811,4.29093155 1.24356696,4.239375 1.28489349,4.23902083 L1.60398597,4.23664286 L1.70492602,3.94015476 C1.71789222,3.90175298 1.77337309,3.90175298 1.7864426,3.94015476 Z" id="Shape"></path>
                        <path d="M1.7864426,5.49110119 L1.88738265,5.78758929 L2.20647513,5.78996726 C2.24780166,5.79032143 2.26490051,5.84192857 2.23168431,5.86596131 L1.9749949,6.05164583 L2.07128571,6.34960119 C2.08378699,6.38815476 2.03889605,6.42013095 2.00526658,6.39655357 L1.74568431,6.21481548 L1.48610204,6.39655357 C1.45247258,6.42008036 1.40768495,6.38815476 1.42008291,6.34960119 L1.51637372,6.05164583 L1.25968431,5.86596131 C1.22646811,5.84187798 1.24356696,5.79032143 1.28489349,5.78996726 L1.60398597,5.78758929 L1.70492602,5.49110119 C1.71789222,5.45275 1.77337309,5.45275 1.7864426,5.49110119 Z" id="Shape"></path>
                        <path d="M3.01554528,0.0778154762 L3.11648533,0.374303571 L3.43557781,0.376681548 C3.47690434,0.377035714 3.49400319,0.428642857 3.46078699,0.452675595 L3.20409758,0.638360119 L3.30038839,0.936315476 C3.31288967,0.974869048 3.26799872,1.00684524 3.23436926,0.983267857 L2.97478699,0.801529762 L2.71520472,0.983267857 C2.68157526,1.00679464 2.63678763,0.974869048 2.64918559,0.936315476 L2.7454764,0.638360119 L2.48878699,0.452675595 C2.45557079,0.428592262 2.47266964,0.377035714 2.51399617,0.376681548 L2.83308865,0.374303571 L2.9340287,0.0778154762 C2.94704656,0.0394136905 3.00247577,0.0394136905 3.01554528,0.0778154762 Z" id="Shape"></path>
                        <path d="M3.01554528,1.6287619 L3.11648533,1.92525 L3.43557781,1.92762798 C3.47690434,1.92798214 3.49400319,1.97958929 3.46078699,2.00362202 L3.20409758,2.18930655 L3.30038839,2.4872619 C3.31288967,2.52581548 3.26799872,2.55779167 3.23436926,2.53421429 L2.97478699,2.35247619 L2.71520472,2.53421429 C2.68157526,2.55774107 2.63678763,2.52581548 2.64918559,2.4872619 L2.7454764,2.18930655 L2.48878699,2.00362202 C2.45557079,1.97953869 2.47266964,1.92798214 2.51399617,1.92762798 L2.83308865,1.92525 L2.9340287,1.6287619 C2.94704656,1.59041071 3.00247577,1.59041071 3.01554528,1.6287619 Z" id="Shape"></path>
                        <path d="M3.01554528,3.17970833 L3.11648533,3.47619643 L3.43557781,3.4785744 C3.47690434,3.47892857 3.49400319,3.53053571 3.46078699,3.55456845 L3.20409758,3.74025298 L3.30038839,4.03820833 C3.31288967,4.0767619 3.26799872,4.1087381 3.23436926,4.08516071 L2.97478699,3.90342262 L2.71520472,4.08516071 C2.68157526,4.1086875 2.63678763,4.0767619 2.64918559,4.03820833 L2.7454764,3.74025298 L2.48878699,3.55456845 C2.45557079,3.53048512 2.47266964,3.47892857 2.51399617,3.4785744 L2.83308865,3.47619643 L2.9340287,3.17970833 C2.94704656,3.14135714 3.00247577,3.14135714 3.01554528,3.17970833 Z" id="Shape"></path>
                        <path d="M3.01554528,4.73070536 L3.11648533,5.02719345 L3.43557781,5.02957143 C3.47690434,5.0299256 3.49400319,5.08153274 3.46078699,5.10556548 L3.20409758,5.29125 L3.30038839,5.58920536 C3.31288967,5.62775893 3.26799872,5.65973512 3.23436926,5.63615774 L2.97478699,5.45441964 L2.71520472,5.63615774 C2.68157526,5.65968452 2.63678763,5.62775893 2.64918559,5.58920536 L2.7454764,5.29125 L2.48878699,5.10556548 C2.45557079,5.08148214 2.47266964,5.0299256 2.51399617,5.02957143 L2.83308865,5.02719345 L2.9340287,4.73070536 C2.94704656,4.69230357 3.00247577,4.69230357 3.01554528,4.73070536 Z" id="Shape"></path>
                        <path d="M3.01554528,6.28165179 L3.11648533,6.57813988 L3.43557781,6.58051786 C3.47690434,6.58087202 3.49400319,6.63247917 3.46078699,6.6565119 L3.20409758,6.84219643 L3.30038839,7.14015179 C3.31288967,7.17870536 3.26799872,7.21068155 3.23436926,7.18710417 L2.97478699,7.00536607 L2.71520472,7.18710417 C2.68157526,7.21063095 2.63678763,7.17870536 2.64918559,7.14015179 L2.7454764,6.84219643 L2.48878699,6.6565119 C2.45557079,6.63242857 2.47266964,6.58087202 2.51399617,6.58051786 L2.83308865,6.57813988 L2.9340287,6.28165179 C2.94704656,6.2431994 3.00247577,6.2431994 3.01554528,6.28165179 Z" id="Shape"></path>
                        <path d="M4.24469962,0.83821131 L4.34563967,1.1346994 L4.66473214,1.13707738 C4.70605867,1.13743155 4.72315753,1.18903869 4.68994133,1.21307143 L4.43325191,1.39875595 L4.52954273,1.69671131 C4.54204401,1.73526488 4.49715306,1.76724107 4.4635236,1.74366369 L4.20394133,1.5619256 L3.94435906,1.74366369 C3.91072959,1.76719048 3.86594196,1.73526488 3.87833992,1.69671131 L3.97463074,1.39875595 L3.71794133,1.21307143 C3.68472513,1.1889881 3.70182398,1.13743155 3.74315051,1.13707738 L4.06224298,1.1346994 L4.16318304,0.83821131 C4.17614923,0.799860119 4.2316301,0.799860119 4.24469962,0.83821131 Z" id="Shape"></path>
                        <path d="M4.24469962,2.38920833 L4.34563967,2.68569643 L4.66473214,2.6880744 C4.70605867,2.68842857 4.72315753,2.74003571 4.68994133,2.76406845 L4.43325191,2.94975298 L4.52954273,3.24770833 C4.54204401,3.2862619 4.49715306,3.3182381 4.4635236,3.29466071 L4.20394133,3.11292262 L3.94435906,3.29466071 C3.91072959,3.3181875 3.86594196,3.2863125 3.87833992,3.24770833 L3.97463074,2.94975298 L3.71794133,2.76406845 C3.68472513,2.73998512 3.70182398,2.68842857 3.74315051,2.6880744 L4.06224298,2.68569643 L4.16318304,2.38920833 C4.17614923,2.35080655 4.2316301,2.35080655 4.24469962,2.38920833 Z" id="Shape"></path>
                        <path d="M4.24469962,3.94015476 L4.34563967,4.23664286 L4.66473214,4.23902083 C4.70605867,4.239375 4.72315753,4.29098214 4.68994133,4.31501488 L4.43325191,4.5006994 L4.52954273,4.79865476 C4.54204401,4.83720833 4.49715306,4.86918452 4.4635236,4.84560714 L4.20394133,4.66386905 L3.94435906,4.84560714 C3.91072959,4.86913393 3.86594196,4.83720833 3.87833992,4.79865476 L3.97463074,4.5006994 L3.71794133,4.31501488 C3.68472513,4.29093155 3.70182398,4.239375 3.74315051,4.23902083 L4.06224298,4.23664286 L4.16318304,3.94015476 C4.17614923,3.90175298 4.2316301,3.90175298 4.24469962,3.94015476 Z" id="Shape"></path>
                        <path d="M4.24469962,5.49110119 L4.34563967,5.78758929 L4.66473214,5.78996726 C4.70605867,5.79032143 4.72315753,5.84192857 4.68994133,5.86596131 L4.43325191,6.05164583 L4.52954273,6.34960119 C4.54204401,6.38815476 4.49715306,6.42013095 4.4635236,6.39655357 L4.20394133,6.21481548 L3.94435906,6.39655357 C3.91072959,6.42008036 3.86594196,6.38815476 3.87833992,6.34960119 L3.97463074,6.05164583 L3.71794133,5.86596131 C3.68472513,5.84187798 3.70182398,5.79032143 3.74315051,5.78996726 L4.06224298,5.78758929 L4.16318304,5.49110119 C4.17614923,5.45275 4.2316301,5.45275 4.24469962,5.49110119 Z" id="Shape"></path>
                        <path d="M5.4738023,0.0778154762 L5.57474235,0.374303571 L5.89383482,0.376681548 C5.93516135,0.377035714 5.9522602,0.428642857 5.91904401,0.452675595 L5.66235459,0.638360119 L5.75864541,0.936315476 C5.77114668,0.974869048 5.72625574,1.00684524 5.69262628,0.983267857 L5.43299235,0.801529762 L5.17341008,0.983267857 C5.13978061,1.00679464 5.09499298,0.974869048 5.10739094,0.936315476 L5.20368176,0.638360119 L4.94699235,0.452675595 C4.91377615,0.428592262 4.930875,0.377035714 4.97220153,0.376681548 L5.29129401,0.374303571 L5.39223406,0.0778154762 C5.40530357,0.0394136905 5.46073278,0.0394136905 5.4738023,0.0778154762 Z" id="Shape"></path>
                        <path d="M5.4738023,1.6287619 L5.57474235,1.92525 L5.89383482,1.92762798 C5.93516135,1.92798214 5.9522602,1.97958929 5.91904401,2.00362202 L5.66235459,2.18930655 L5.75864541,2.4872619 C5.77114668,2.52581548 5.72625574,2.55779167 5.69262628,2.53421429 L5.43299235,2.35247619 L5.17341008,2.53421429 C5.13978061,2.55774107 5.09499298,2.52581548 5.10739094,2.4872619 L5.20368176,2.18930655 L4.94699235,2.00362202 C4.91377615,1.97953869 4.930875,1.92798214 4.97220153,1.92762798 L5.29129401,1.92525 L5.39223406,1.6287619 C5.40530357,1.59041071 5.46073278,1.59041071 5.4738023,1.6287619 Z" id="Shape"></path>
                        <path d="M5.4738023,3.17970833 L5.57474235,3.47619643 L5.89383482,3.4785744 C5.93516135,3.47892857 5.9522602,3.53053571 5.91904401,3.55456845 L5.66235459,3.74025298 L5.75864541,4.03820833 C5.77114668,4.0767619 5.72625574,4.1087381 5.69262628,4.08516071 L5.43299235,3.90342262 L5.17341008,4.08516071 C5.13978061,4.1086875 5.09499298,4.0767619 5.10739094,4.03820833 L5.20368176,3.74025298 L4.94699235,3.55456845 C4.91377615,3.53048512 4.930875,3.47892857 4.97220153,3.4785744 L5.29129401,3.47619643 L5.39223406,3.17970833 C5.40530357,3.14135714 5.46073278,3.14135714 5.4738023,3.17970833 Z" id="Shape"></path>
                        <path d="M5.4738023,4.73070536 L5.57474235,5.02719345 L5.89383482,5.02957143 C5.93516135,5.0299256 5.9522602,5.08153274 5.91904401,5.10556548 L5.66235459,5.29125 L5.75864541,5.58920536 C5.77114668,5.62775893 5.72625574,5.65973512 5.69262628,5.63615774 L5.43299235,5.45441964 L5.17341008,5.63615774 C5.13978061,5.65968452 5.09499298,5.62775893 5.10739094,5.58920536 L5.20368176,5.29125 L4.94699235,5.10556548 C4.91377615,5.08148214 4.930875,5.0299256 4.97220153,5.02957143 L5.29129401,5.02719345 L5.39223406,4.73070536 C5.40530357,4.69230357 5.46073278,4.69230357 5.4738023,4.73070536 Z" id="Shape"></path>
                        <path d="M5.4738023,6.28165179 L5.57474235,6.57813988 L5.89383482,6.58051786 C5.93516135,6.58087202 5.9522602,6.63247917 5.91904401,6.6565119 L5.66235459,6.84219643 L5.75864541,7.14015179 C5.77114668,7.17870536 5.72625574,7.21068155 5.69262628,7.18710417 L5.43299235,7.00536607 L5.17341008,7.18710417 C5.13978061,7.21063095 5.09499298,7.17870536 5.10739094,7.14015179 L5.20368176,6.84219643 L4.94699235,6.6565119 C4.91377615,6.63242857 4.930875,6.58087202 4.97220153,6.58051786 L5.29129401,6.57813988 L5.39223406,6.28165179 C5.40530357,6.2431994 5.46073278,6.2431994 5.4738023,6.28165179 Z" id="Shape"></path>
                        <path d="M6.70290497,0.83821131 L6.80384503,1.1346994 L7.1229375,1.13707738 C7.16426403,1.13743155 7.18136288,1.18903869 7.14814668,1.21307143 L6.89145727,1.39875595 L6.98774809,1.69671131 C7.00024936,1.73526488 6.95535842,1.76724107 6.92172895,1.74366369 L6.66214668,1.5619256 L6.40256441,1.74366369 C6.36893495,1.76719048 6.32414732,1.73526488 6.33654528,1.69671131 L6.4328361,1.39875595 L6.17614668,1.21307143 C6.14293048,1.1889881 6.16002934,1.13743155 6.20135587,1.13707738 L6.52044834,1.1346994 L6.62138839,0.83821131 C6.63445791,0.799860119 6.68983546,0.799860119 6.70290497,0.83821131 Z" id="Shape"></path>
                        <path d="M6.70290497,2.38920833 L6.80384503,2.68569643 L7.1229375,2.6880744 C7.16426403,2.68842857 7.18136288,2.74003571 7.14814668,2.76406845 L6.89145727,2.94975298 L6.98774809,3.24770833 C7.00024936,3.2862619 6.95535842,3.3182381 6.92172895,3.29466071 L6.66214668,3.11292262 L6.40256441,3.29466071 C6.36893495,3.3181875 6.32414732,3.2863125 6.33654528,3.24770833 L6.4328361,2.94975298 L6.17614668,2.76406845 C6.14293048,2.73998512 6.16002934,2.68842857 6.20135587,2.6880744 L6.52044834,2.68569643 L6.62138839,2.38920833 C6.63445791,2.35080655 6.68983546,2.35080655 6.70290497,2.38920833 Z" id="Shape"></path>
                        <path d="M6.70290497,3.94015476 L6.80384503,4.23664286 L7.1229375,4.23902083 C7.16426403,4.239375 7.18136288,4.29098214 7.14814668,4.31501488 L6.89145727,4.5006994 L6.98774809,4.79865476 C7.00024936,4.83720833 6.95535842,4.86918452 6.92172895,4.84560714 L6.66214668,4.66386905 L6.40256441,4.84560714 C6.36893495,4.86913393 6.32414732,4.83720833 6.33654528,4.79865476 L6.4328361,4.5006994 L6.17614668,4.31501488 C6.14293048,4.29093155 6.16002934,4.239375 6.20135587,4.23902083 L6.52044834,4.23664286 L6.62138839,3.94015476 C6.63445791,3.90175298 6.68983546,3.90175298 6.70290497,3.94015476 Z" id="Shape"></path>
                        <path d="M6.70290497,5.49110119 L6.80384503,5.78758929 L7.1229375,5.78996726 C7.16426403,5.79032143 7.18136288,5.84192857 7.14814668,5.86596131 L6.89145727,6.05164583 L6.98774809,6.34960119 C7.00024936,6.38815476 6.95535842,6.42013095 6.92172895,6.39655357 L6.66214668,6.21481548 L6.40256441,6.39655357 C6.36893495,6.42008036 6.32414732,6.38815476 6.33654528,6.34960119 L6.4328361,6.05164583 L6.17614668,5.86596131 C6.14293048,5.84187798 6.16002934,5.79032143 6.20135587,5.78996726 L6.52044834,5.78758929 L6.62138839,5.49110119 C6.63445791,5.45275 6.68983546,5.45275 6.70290497,5.49110119 Z" id="Shape"></path>
                        <path d="M7.93205931,0.0778154762 L8.03299936,0.374303571 L8.35209184,0.376681548 C8.39341837,0.377035714 8.41051722,0.428642857 8.37730102,0.452675595 L8.12061161,0.638360119 L8.21690242,0.936315476 C8.2294037,0.974869048 8.18451276,1.00684524 8.15088329,0.983267857 L7.89130102,0.801529762 L7.63171875,0.983267857 C7.59808929,1.00679464 7.55330166,0.974869048 7.56569962,0.936315476 L7.66199043,0.638360119 L7.40530102,0.452675595 C7.37208482,0.428592262 7.38918367,0.377035714 7.4305102,0.376681548 L7.74960268,0.374303571 L7.85054273,0.0778154762 C7.86350893,0.0394136905 7.9189898,0.0394136905 7.93205931,0.0778154762 Z" id="Shape"></path>
                        <path d="M7.93205931,1.6287619 L8.03299936,1.92525 L8.35209184,1.92762798 C8.39341837,1.92798214 8.41051722,1.97958929 8.37730102,2.00362202 L8.12061161,2.18930655 L8.21690242,2.4872619 C8.2294037,2.52581548 8.18451276,2.55779167 8.15088329,2.53421429 L7.89130102,2.35247619 L7.63171875,2.53421429 C7.59808929,2.55774107 7.55330166,2.52581548 7.56569962,2.4872619 L7.66199043,2.18930655 L7.40530102,2.00362202 C7.37208482,1.97953869 7.38918367,1.92798214 7.4305102,1.92762798 L7.74960268,1.92525 L7.85054273,1.6287619 C7.86350893,1.59041071 7.9189898,1.59041071 7.93205931,1.6287619 Z" id="Shape"></path>
                        <path d="M7.93205931,3.17970833 L8.03299936,3.47619643 L8.35209184,3.4785744 C8.39341837,3.47892857 8.41051722,3.53053571 8.37730102,3.55456845 L8.12061161,3.74025298 L8.21690242,4.03820833 C8.2294037,4.0767619 8.18451276,4.1087381 8.15088329,4.08516071 L7.89130102,3.90342262 L7.63171875,4.08516071 C7.59808929,4.1086875 7.55330166,4.0767619 7.56569962,4.03820833 L7.66199043,3.74025298 L7.40530102,3.55456845 C7.37208482,3.53048512 7.38918367,3.47892857 7.4305102,3.4785744 L7.74960268,3.47619643 L7.85054273,3.17970833 C7.86350893,3.14135714 7.9189898,3.14135714 7.93205931,3.17970833 Z" id="Shape"></path>
                        <path d="M7.93205931,4.73070536 L8.03299936,5.02719345 L8.35209184,5.02957143 C8.39341837,5.0299256 8.41051722,5.08153274 8.37730102,5.10556548 L8.12061161,5.29125 L8.21690242,5.58920536 C8.2294037,5.62775893 8.18451276,5.65973512 8.15088329,5.63615774 L7.89130102,5.45441964 L7.63171875,5.63615774 C7.59808929,5.65968452 7.55330166,5.62775893 7.56569962,5.58920536 L7.66199043,5.29125 L7.40530102,5.10556548 C7.37208482,5.08148214 7.38918367,5.0299256 7.4305102,5.02957143 L7.74960268,5.02719345 L7.85054273,4.73070536 C7.86350893,4.69230357 7.9189898,4.69230357 7.93205931,4.73070536 Z" id="Shape"></path>
                        <path d="M7.93205931,6.28165179 L8.03299936,6.57813988 L8.35209184,6.58051786 C8.39341837,6.58087202 8.41051722,6.63247917 8.37730102,6.6565119 L8.12061161,6.84219643 L8.21690242,7.14015179 C8.2294037,7.17870536 8.18451276,7.21068155 8.15088329,7.18710417 L7.89130102,7.00536607 L7.63171875,7.18710417 C7.59808929,7.21063095 7.55330166,7.17870536 7.56569962,7.14015179 L7.66199043,6.84219643 L7.40530102,6.6565119 C7.37208482,6.63242857 7.38918367,6.58087202 7.4305102,6.58051786 L7.74960268,6.57813988 L7.85054273,6.28165179 C7.86350893,6.2431994 7.9189898,6.2431994 7.93205931,6.28165179 Z" id="Shape"></path>
                        <path d="M9.16116199,0.83821131 L9.26210204,1.1346994 L9.58119452,1.13707738 C9.62252105,1.13743155 9.6396199,1.18903869 9.6064037,1.21307143 L9.34971429,1.39875595 L9.4460051,1.69671131 C9.45850638,1.73526488 9.41361543,1.76724107 9.37998597,1.74366369 L9.1204037,1.5619256 L8.86082143,1.74366369 C8.82719196,1.76719048 8.78240434,1.73526488 8.7948023,1.69671131 L8.89109311,1.39875595 L8.6344037,1.21307143 C8.6011875,1.1889881 8.61828635,1.13743155 8.65961288,1.13707738 L8.97870536,1.1346994 L9.07964541,0.83821131 C9.09266327,0.799860119 9.14814413,0.799860119 9.16116199,0.83821131 Z" id="Shape"></path>
                        <path d="M9.16116199,2.38920833 L9.26210204,2.68569643 L9.58119452,2.6880744 C9.62252105,2.68842857 9.6396199,2.74003571 9.6064037,2.76406845 L9.34971429,2.94975298 L9.4460051,3.24770833 C9.45850638,3.2862619 9.41361543,3.3182381 9.37998597,3.29466071 L9.1204037,3.11292262 L8.86082143,3.29466071 C8.82719196,3.3181875 8.78240434,3.2863125 8.7948023,3.24770833 L8.89109311,2.94975298 L8.6344037,2.76406845 C8.6011875,2.73998512 8.61828635,2.68842857 8.65961288,2.6880744 L8.97870536,2.68569643 L9.07964541,2.38920833 C9.09266327,2.35080655 9.14814413,2.35080655 9.16116199,2.38920833 Z" id="Shape"></path>
                        <path d="M9.16116199,3.94015476 L9.26210204,4.23664286 L9.58119452,4.23902083 C9.62252105,4.239375 9.6396199,4.29098214 9.6064037,4.31501488 L9.34971429,4.5006994 L9.4460051,4.79865476 C9.45850638,4.83720833 9.41361543,4.86918452 9.37998597,4.84560714 L9.1204037,4.66386905 L8.86082143,4.84560714 C8.82719196,4.86913393 8.78240434,4.83720833 8.7948023,4.79865476 L8.89109311,4.5006994 L8.6344037,4.31501488 C8.6011875,4.29093155 8.61828635,4.239375 8.65961288,4.23902083 L8.97870536,4.23664286 L9.07964541,3.94015476 C9.09266327,3.90175298 9.14814413,3.90175298 9.16116199,3.94015476 Z" id="Shape"></path>
                        <path d="M9.16116199,5.49110119 L9.26210204,5.78758929 L9.58119452,5.78996726 C9.62252105,5.79032143 9.6396199,5.84192857 9.6064037,5.86596131 L9.34971429,6.05164583 L9.4460051,6.34960119 C9.45850638,6.38815476 9.41361543,6.42013095 9.37998597,6.39655357 L9.1204037,6.21481548 L8.86082143,6.39655357 C8.82719196,6.42008036 8.78240434,6.38815476 8.7948023,6.34960119 L8.89109311,6.05164583 L8.6344037,5.86596131 C8.6011875,5.84187798 8.61828635,5.79032143 8.65961288,5.78996726 L8.97870536,5.78758929 L9.07964541,5.49110119 C9.09266327,5.45275 9.14814413,5.45275 9.16116199,5.49110119 Z" id="Shape"></path>
                        <path d="M10.3903163,0.0778154762 L10.4912564,0.374303571 L10.8103489,0.376681548 C10.8516754,0.377035714 10.8687742,0.428642857 10.835558,0.452675595 L10.5788686,0.638360119 L10.6751594,0.936315476 C10.6876607,0.974869048 10.6427698,1.00684524 10.6091403,0.983267857 L10.349558,0.801529762 L10.0899758,0.983267857 C10.0563463,1.00679464 10.0115587,0.974869048 10.0239566,0.936315476 L10.1202474,0.638360119 L9.86355804,0.452675595 C9.83034184,0.428592262 9.84744069,0.377035714 9.88876722,0.376681548 L10.2078597,0.374303571 L10.3087997,0.0778154762 C10.3218176,0.0394136905 10.3771952,0.0394136905 10.3903163,0.0778154762 Z" id="Shape"></path>
                        <path d="M10.3903163,1.6287619 L10.4912564,1.92525 L10.8103489,1.92762798 C10.8516754,1.92798214 10.8687742,1.97958929 10.835558,2.00362202 L10.5788686,2.18930655 L10.6751594,2.4872619 C10.6876607,2.52581548 10.6427698,2.55779167 10.6091403,2.53421429 L10.349558,2.35247619 L10.0899758,2.53421429 C10.0563463,2.55774107 10.0115587,2.52581548 10.0239566,2.4872619 L10.1202474,2.18930655 L9.86355804,2.00362202 C9.83034184,1.97953869 9.84744069,1.92798214 9.88876722,1.92762798 L10.2078597,1.92525 L10.3087997,1.6287619 C10.3218176,1.59041071 10.3771952,1.59041071 10.3903163,1.6287619 Z" id="Shape"></path>
                        <path d="M10.3903163,3.17970833 L10.4912564,3.47619643 L10.8103489,3.4785744 C10.8516754,3.47892857 10.8687742,3.53053571 10.835558,3.55456845 L10.5788686,3.74025298 L10.6751594,4.03820833 C10.6876607,4.0767619 10.6427698,4.1087381 10.6091403,4.08516071 L10.349558,3.90342262 L10.0899758,4.08516071 C10.0563463,4.1086875 10.0115587,4.0767619 10.0239566,4.03820833 L10.1202474,3.74025298 L9.86355804,3.55456845 C9.83034184,3.53048512 9.84744069,3.47892857 9.88876722,3.4785744 L10.2078597,3.47619643 L10.3087997,3.17970833 C10.3218176,3.14135714 10.3771952,3.14135714 10.3903163,3.17970833 Z" id="Shape"></path>
                        <path d="M10.3903163,4.73070536 L10.4912564,5.02719345 L10.8103489,5.02957143 C10.8516754,5.0299256 10.8687742,5.08153274 10.835558,5.10556548 L10.5788686,5.29125 L10.6751594,5.58920536 C10.6876607,5.62775893 10.6427698,5.65973512 10.6091403,5.63615774 L10.349558,5.45441964 L10.0899758,5.63615774 C10.0563463,5.65968452 10.0115587,5.62775893 10.0239566,5.58920536 L10.1202474,5.29125 L9.86355804,5.10556548 C9.83034184,5.08148214 9.84744069,5.0299256 9.88876722,5.02957143 L10.2078597,5.02719345 L10.3087997,4.73070536 C10.3218176,4.69230357 10.3771952,4.69230357 10.3903163,4.73070536 Z" id="Shape"></path>
                        <path d="M10.3903163,6.28165179 L10.4912564,6.57813988 L10.8103489,6.58051786 C10.8516754,6.58087202 10.8687742,6.63247917 10.835558,6.6565119 L10.5788686,6.84219643 L10.6751594,7.14015179 C10.6876607,7.17870536 10.6427698,7.21068155 10.6091403,7.18710417 L10.349558,7.00536607 L10.0899758,7.18710417 C10.0563463,7.21063095 10.0115587,7.17870536 10.0239566,7.14015179 L10.1202474,6.84219643 L9.86355804,6.6565119 C9.83034184,6.63242857 9.84744069,6.58087202 9.88876722,6.58051786 L10.2078597,6.57813988 L10.3087997,6.28165179 C10.3218176,6.2431994 10.3771952,6.2431994 10.3903163,6.28165179 Z" id="Shape"></path>
                    </g>
                </g>
            </g>
        </g>
    </g>
</svg>