<?xml version="1.0" encoding="UTF-8"?>
<svg width="80px" height="80px" viewBox="0 0 80 80" version="1.1" xmlns="http://www.w3.org/2000/svg" xmlns:xlink="http://www.w3.org/1999/xlink">
    <!-- Generator: Sketch 47.1 (45422) - http://www.bohemiancoding.com/sketch -->
    <title>Github</title>
    <desc>Created with Sketch.</desc>
    <defs></defs>
    <g id="Web" stroke="none" stroke-width="1" fill="none" fill-rule="evenodd">
        <g id="Main" transform="translate(-1100.000000, -10108.000000)">
            <g id="Footer" transform="translate(0.000000, 9586.000000)">
                <g id="Social/Github" transform="translate(1100.000000, 522.000000)">
                    <circle id="Oval-2" fill="#FFFFFF" cx="40" cy="40" r="40"></circle>
                    <path d="M40.0001573,21 C50.4932229,21 59,29.5763876 59,40.1563433 C59,48.6172625 53.5627986,55.7953399 46.017545,58.3312047 C45.0544484,58.5193168 44.7124405,57.9219896 44.7124405,57.4122154 C44.7124405,56.7812628 44.7344649,54.7183745 44.7344649,52.1552286 C44.7344649,50.3680053 44.12722,49.2022181 43.4457214,48.6077459 C47.6766135,48.1335004 52.1214573,46.5134526 52.1214573,39.1558282 C52.1214573,37.06439 51.3842683,35.3555203 50.1660029,34.0139926 C50.3632788,33.5314994 51.0139433,31.5831279 49.9797392,28.9444834 C49.9797392,28.9444834 48.3864293,28.4296336 44.7599503,30.9080815 C43.2415235,30.4836398 41.6148623,30.2707845 40.0001573,30.2634884 C38.3854523,30.2707845 36.7600497,30.4836398 35.2444546,30.9080815 C31.6135707,28.4296336 30.0180584,28.9444834 30.0180584,28.9444834 C28.9863714,31.5831279 29.6367212,33.5314994 29.8339971,34.0139926 C28.6185634,35.3555203 27.8763403,37.06439 27.8763403,39.1558282 C27.8763403,46.4960055 32.3126889,48.138576 36.5328835,48.6229725 C35.9895094,49.1013418 35.4971062,49.9464186 35.3265742,51.1845323 C34.2423432,51.6740043 31.4921217,52.5206672 29.7974995,49.5920827 C29.7974995,49.5920827 28.792871,47.7531524 26.8849265,47.6180163 C26.8849265,47.6180163 25.0310992,47.5935902 26.7549824,48.7825346 C26.7549824,48.7825346 28.0003064,49.3712969 28.8646077,51.5854996 C28.8646077,51.5854996 29.9799876,55.0045078 35.2658497,53.8456994 C35.2740302,55.4463967 35.2916498,56.9554171 35.2916498,57.4122154 C35.2916498,57.918183 34.9430346,58.5110691 33.9934672,58.3337425 C26.4441234,55.8007326 21,48.6201175 21,40.1563433 C21,29.5763876 29.5080356,21 40.0001573,21 Z M28.2523471,48.3728778 C28.2105785,48.4671057 28.0623471,48.495374 27.9273058,48.4306709 C27.7897521,48.3687946 27.7124959,48.2403306 27.7570909,48.1457887 C27.7979174,48.048734 27.9464628,48.021722 28.0837025,48.0867392 C28.2215702,48.1486155 28.3000826,48.2783359 28.2523471,48.3728778 Z M29.0205124,49.2297231 C28.9300661,49.3135859 28.7532562,49.2746384 28.6332893,49.1420912 C28.5092397,49.0098581 28.486,48.8330238 28.5777025,48.7479047 C28.6709752,48.6640419 28.8424463,48.7033035 28.9668099,48.8355366 C29.0908595,48.9693401 29.1150413,49.144918 29.0205124,49.2297231 Z M29.7682645,50.322138 C29.6520661,50.4028599 29.4620661,50.3271635 29.3446116,50.1584957 C29.2284132,49.9898278 29.2284132,49.787552 29.347124,49.706516 C29.4648926,49.6254801 29.6520661,49.6983496 29.7710909,49.8657611 C29.8869752,50.0372558 29.8869752,50.2395316 29.7682645,50.322138 Z M30.7926942,51.37749 C30.6887438,51.4921339 30.4673388,51.4613528 30.3052893,51.3049346 C30.1394711,51.1519713 30.0933058,50.9349332 30.1975702,50.8202893 C30.3027769,50.7053313 30.525438,50.7376829 30.6887438,50.8928447 C30.8533058,51.0454939 30.9035537,51.2641025 30.7926942,51.37749 Z M32.2059174,51.9902852 C32.1600661,52.1388511 31.9468264,52.206381 31.7320165,52.1432484 C31.5175207,52.0782312 31.3771405,51.9042237 31.4204793,51.7540873 C31.4650744,51.6045791 31.6792562,51.5342223 31.8956364,51.6017523 C32.1098182,51.6664554 32.2505124,51.8392065 32.2059174,51.9902852 Z M33.7579504,52.1039868 C33.7632893,52.260405 33.5811405,52.3901254 33.3556529,52.3929522 C33.1289091,52.3979777 32.9455041,52.2713983 32.9429917,52.1174928 C32.9429917,51.9595041 33.1210579,51.8310401 33.3478017,51.827271 C33.5732893,51.8228737 33.7579504,51.9485108 33.7579504,52.1039868 Z M35.2022645,51.8580521 C35.2292727,52.0107012 35.072562,52.1674335 34.8486446,52.2092079 C34.6284959,52.2494118 34.4246777,52.1551839 34.3967273,52.0037912 C34.369405,51.8473729 34.5289421,51.6906406 34.7487769,51.6501226 C34.9730083,51.6111751 35.173686,51.7028902 35.2022645,51.8580521 Z" id="Combined-Shape" fill="#161514"></path>
                </g>
            </g>
        </g>
    </g>
</svg>