<?xml version="1.0" encoding="UTF-8"?>
<svg width="80px" height="80px" viewBox="0 0 80 80" version="1.1" xmlns="http://www.w3.org/2000/svg" xmlns:xlink="http://www.w3.org/1999/xlink">
    <!-- Generator: Sketch 47.1 (45422) - http://www.bohemiancoding.com/sketch -->
    <title>Medium</title>
    <desc>Created with Sketch.</desc>
    <defs></defs>
    <g id="Web" stroke="none" stroke-width="1" fill="none" fill-rule="evenodd">
        <g id="Main" transform="translate(-680.000000, -10108.000000)">
            <g id="Footer" transform="translate(0.000000, 9586.000000)">
                <g id="Social/Medium" transform="translate(680.000000, 522.000000)">
                    <circle id="Oval-2" fill="#FFFFFF" fill-rule="evenodd" cx="40" cy="40" r="40"></circle>
                    <path d="M27.031746,32.5063793 C27.0739884,32.0890103 26.9148275,31.6764874 26.6031746,31.3955823 L23.4285714,27.571267 L23.4285714,27 L33.2857143,27 L40.9047619,43.7095601 L47.6031747,27 L57,27 L57,27.571267 L54.2857143,30.1737056 C54.0517131,30.352075 53.9356366,30.6452376 53.9841271,30.935395 L53.9841271,50.0569715 C53.9356366,50.3471288 54.0517131,50.6402914 54.2857143,50.8186608 L56.936508,53.4210995 L56.936508,53.9923664 L43.6031747,53.9923664 L43.6031747,53.4210995 L46.3492065,50.7551867 C46.6190476,50.4854216 46.6190476,50.4060791 46.6190476,49.9934974 L46.6190476,34.5375509 L38.984127,53.9288923 L37.952381,53.9288923 L29.0634921,34.5375509 L29.0634921,47.5338754 C28.9893797,48.0802775 29.1708494,48.6303847 29.5555555,49.0255172 L33.1269841,53.3576253 L33.1269841,53.9288923 L23,53.9288923 L23,53.3576253 L26.5714286,49.0255172 C26.9533337,48.6297296 27.1242217,48.0759732 27.031746,47.5338754 L27.031746,32.5063793 Z" id="Shape" fill="#000000" fill-rule="nonzero"></path>
                </g>
            </g>
        </g>
    </g>
</svg>