<?xml version="1.0" encoding="UTF-8"?>
<svg width="80px" height="80px" viewBox="0 0 80 80" version="1.1" xmlns="http://www.w3.org/2000/svg" xmlns:xlink="http://www.w3.org/1999/xlink">
    <!-- Generator: Sketch 47.1 (45422) - http://www.bohemiancoding.com/sketch -->
    <title>Medium Copy</title>
    <desc>Created with Sketch.</desc>
    <defs></defs>
    <g id="Web" stroke="none" stroke-width="1" fill="none" fill-rule="evenodd">
        <g id="Main" transform="translate(-540.000000, -10108.000000)">
            <g id="Footer" transform="translate(0.000000, 9586.000000)">
                <g id="Social/Reddit" transform="translate(540.000000, 522.000000)">
                    <circle id="Oval-2" fill="#FFFFFF" fill-rule="evenodd" cx="40" cy="40" r="40"></circle>
                    <path d="M40,59 C29.5065898,59 21,50.4934102 21,40 C21,29.5065898 29.5065898,21 40,21 C50.4934102,21 59,29.5065898 59,40 C59,50.4934102 50.4934102,59 40,59 Z M53.2419902,40.749874 C53.1852579,39.1835929 51.899325,37.9605401 50.3628243,38.0137163 C49.6820363,38.0378873 49.0343422,38.3231052 48.542662,38.801691 C46.3773779,37.2934204 43.8338783,36.466772 41.2194633,36.4087616 L42.4533916,30.3418396 L46.5239365,31.2168299 C46.6374011,32.2851883 47.5734846,33.0586605 48.6183051,32.9426396 C49.6631256,32.8266188 50.4195567,31.8694471 50.306092,30.8010887 C50.1926273,29.7327303 49.2565438,28.9592582 48.2117234,29.075279 C47.6113062,29.1381236 47.072349,29.4958545 46.7745043,30.0276165 L42.1129976,29.075279 C41.796242,29.002766 41.4794865,29.2058024 41.4085711,29.5345281 C41.4085711,29.5393623 41.4085711,29.5393623 41.4085711,29.5441965 L40.0044459,36.2927408 C37.356937,36.3362486 34.7803435,37.1677312 32.5866933,38.6856702 C31.4709574,37.6124776 29.7122551,37.6656538 28.662707,38.8113594 C27.6131588,39.9522308 27.6651634,41.7505535 28.785627,42.8237461 C29.0031009,43.0316168 29.2536688,43.2104822 29.5326027,43.3361714 C29.5136919,43.6213893 29.5136919,43.9066071 29.5326027,44.1918249 C29.5326027,48.5474399 34.4966819,52.0909091 40.6190461,52.0909091 C46.7414104,52.0909091 51.7054895,48.5522741 51.7054895,44.1918249 C51.7244003,43.9066071 51.7244003,43.6213893 51.7054895,43.3361714 C52.6604838,42.8479171 53.260901,41.8424033 53.2419902,40.749874 Z M33.6666667,42.3030303 C33.6666667,41.3515302 34.4424393,40.5757576 35.3939394,40.5757576 C36.3454395,40.5757576 37.1212121,41.3515302 37.1212121,42.3030303 C37.1212121,43.2545304 36.3454395,44.030303 35.3939394,44.030303 C34.4381532,44.021731 33.6666667,43.2545304 33.6666667,42.3030303 Z M43.8788755,47.1702992 C42.5912687,48.1826629 41.015526,48.7006165 39.4037663,48.6299864 C37.7920067,48.7006165 36.216264,48.1826629 34.9286572,47.1702992 C34.7575765,46.9537004 34.7890914,46.6288023 34.996189,46.4498729 C35.1762739,46.2944868 35.4328948,46.2944868 35.6174818,46.4498729 C36.7069953,47.2833072 38.0351213,47.7070874 39.3857579,47.641166 C40.7363944,47.7165047 42.0690225,47.3115592 43.1720424,46.4875422 C43.3701357,46.2850695 43.6942885,46.2897781 43.8878798,46.4969596 C44.081471,46.704141 44.0769689,47.0431651 43.8788755,47.2456379 L43.8788755,47.1702992 Z M44.6053412,43.9671871 C43.6542374,43.9671871 42.8787879,43.2055882 42.8787879,42.2714723 C42.8787879,41.3373565 43.6542374,40.5757576 44.6053412,40.5757576 C45.556445,40.5757576 46.3318946,41.3373565 46.3318946,42.2714723 C46.3704528,43.2055882 45.6292773,43.9924335 44.6781735,44.030303 C44.6481837,44.030303 44.6224782,44.030303 44.5924885,44.030303 L44.6053412,43.9671871 Z" id="Combined-Shape" fill="#FF4500" fill-rule="nonzero"></path>
                </g>
            </g>
        </g>
    </g>
</svg>