<?xml version="1.0" encoding="UTF-8"?>
<svg width="80px" height="80px" viewBox="0 0 80 80" version="1.1" xmlns="http://www.w3.org/2000/svg" xmlns:xlink="http://www.w3.org/1999/xlink">
    <!-- Generator: Sketch 47.1 (45422) - http://www.bohemiancoding.com/sketch -->
    <title>Slack</title>
    <desc>Created with Sketch.</desc>
    <defs></defs>
    <g id="Web" stroke="none" stroke-width="1" fill="none" fill-rule="evenodd">
        <g id="Main" transform="translate(-260.000000, -10108.000000)">
            <g id="Footer" transform="translate(0.000000, 9586.000000)">
                <g id="Social/Telegram" transform="translate(260.000000, 522.000000)">
                    <circle id="Oval-2" fill="#FFFFFF" fill-rule="evenodd" cx="40" cy="40" r="40"></circle>
                    <path d="M58.9561367,39.80081 C58.9561367,50.1284341 50.4676616,58.5006287 39.9965983,58.5006287 C29.5255343,58.5006287 21.0370597,50.1284341 21.0370597,39.80081 C21.0370597,29.473185 29.5255343,21.1009908 39.9965983,21.1009908 C50.4676616,21.1009908 58.9561367,29.473185 58.9561367,39.80081 Z M44.1833895,44.0726111 C44.7666864,42.5002653 46.902494,36.5206279 47.2454142,34.9523404 C47.6331394,33.1791495 46.8214685,33.0060364 44.9754041,33.6007688 C43.1293412,34.1955013 38.3949807,35.9262129 37.5981406,36.2051714 C36.8013004,36.4841299 32.9219376,37.7701071 32.1176457,38.1538169 C30.4748669,39.0228976 31.2740122,40.3492021 33.1104973,41.0378713 C38.5995413,43.6365474 37.0409339,42.3123006 39.4915096,47.1207923 C39.9958322,48.3491686 41.184988,50.4415185 42.3239137,48.8599051 C42.9226441,47.9603622 43.7246867,45.3090958 44.1833895,44.0726111 L44.1833895,44.0726111 Z" id="Combined-Shape" fill="#2CA6E1" fill-rule="nonzero"></path>
                </g>
            </g>
        </g>
    </g>
</svg>