<?xml version="1.0" encoding="UTF-8"?>
<svg width="80px" height="80px" viewBox="0 0 80 80" version="1.1" xmlns="http://www.w3.org/2000/svg" xmlns:xlink="http://www.w3.org/1999/xlink">
    <!-- Generator: Sketch 47.1 (45422) - http://www.bohemiancoding.com/sketch -->
    <title>Twitter</title>
    <desc>Created with Sketch.</desc>
    <defs></defs>
    <g id="Web" stroke="none" stroke-width="1" fill="none" fill-rule="evenodd">
        <g id="Main" transform="translate(-400.000000, -10108.000000)">
            <g id="Footer" transform="translate(0.000000, 9586.000000)">
                <g id="Social/Twitter" transform="translate(400.000000, 522.000000)">
                    <circle id="Oval-2" fill="#FFFFFF" cx="40" cy="40" r="40"></circle>
                    <path d="M39.5089401,33.4743292 L39.5826407,34.6896178 L38.354297,34.540807 C33.8831257,33.9703654 29.9769925,32.0358242 26.6604644,28.7867872 L25.0390506,27.1746695 L24.6214138,28.3651564 C23.7370063,31.01895 24.3020444,33.8215545 26.14456,35.706492 C27.127235,36.748168 26.9061331,36.8969789 25.2110188,36.2769337 C24.6214138,36.0785192 24.1055094,35.9297083 24.0563756,36.0041138 C23.8844075,36.1777264 24.4740125,38.4346911 24.9407831,39.3275562 C25.5795219,40.5676467 26.8815663,41.7829354 28.306445,42.5021879 L29.5102219,43.0726295 L28.0853432,43.0974313 C26.7095981,43.0974313 26.6604644,43.1222331 26.8078656,43.6430711 C27.2992032,45.2551887 29.2399863,46.9665136 31.4018713,47.7105679 L32.9250176,48.2314059 L31.5984063,49.0250638 C29.6330563,50.165947 27.32377,50.8107941 25.0144838,50.8603977 C23.9089744,50.8851995 23,50.9844067 23,51.0588122 C23,51.3068303 25.9971588,52.6957316 27.7414069,53.2413714 C32.9741513,54.853489 39.1895707,54.1590384 43.857277,51.4060375 C47.1738051,49.4466946 50.4903333,45.5528104 52.0380464,41.7829354 C52.8733202,39.7739888 53.7085939,36.103321 53.7085939,34.3423925 C53.7085939,33.2015093 53.7822946,33.0526984 55.1580396,31.6885989 C55.9687464,30.894941 56.7303196,30.0268776 56.8777208,29.7788595 C57.1233896,29.3076252 57.0988227,29.3076252 55.8459121,29.7292559 C53.7577277,30.4733102 53.4629252,30.374103 54.4947339,29.2580215 C55.2563071,28.4643636 56.1652814,27.0258587 56.1652814,26.6042279 C56.1652814,26.5298225 55.7967783,26.6538315 55.3791414,26.8770478 C54.9369377,27.1250659 53.9542627,27.4970931 53.2172564,27.7203093 L51.8906452,28.1419401 L50.6868683,27.3234804 C50.0235627,26.8770478 49.0900214,26.3810116 48.5986839,26.2322008 C47.3457733,25.8849754 45.429557,25.9345791 44.2994808,26.331408 C41.2286214,27.4474894 39.2878382,30.3244994 39.5089401,33.4743292 Z" id="twiittet" fill="#55ACEE"></path>
                </g>
            </g>
        </g>
    </g>
</svg>