<?xml version="1.0" standalone="no"?>
<!DOCTYPE svg PUBLIC "-//W3C//DTD SVG 20010904//EN"
 "http://www.w3.org/TR/2001/REC-SVG-20010904/DTD/svg10.dtd">
<svg version="1.0" xmlns="http://www.w3.org/2000/svg"
 width="1500.000000pt" height="1500.000000pt" viewBox="0 0 1500.000000 1500.000000"
 preserveAspectRatio="xMidYMid meet">
<metadata>
Created by potrace 1.11, written by Peter Selinger 2001-2013
</metadata>
<g transform="translate(0.000000,1500.000000) scale(0.100000,-0.100000)"
fill="#000000" stroke="none">
<path d="M4427 14461 c15 -20 48 -61 73 -91 25 -31 59 -73 75 -94 35 -45 473
-594 515 -646 16 -19 186 -233 379 -475 193 -242 387 -485 431 -540 44 -55
121 -152 171 -215 51 -63 105 -131 120 -150 16 -19 204 -255 419 -525 215
-269 405 -507 421 -527 17 -21 89 -111 160 -200 71 -90 135 -170 142 -178 7
-8 82 -103 167 -210 85 -107 157 -197 160 -200 3 -3 30 -36 60 -75 65 -83 82
-103 95 -119 6 -6 26 -31 45 -56 19 -25 39 -50 45 -57 5 -7 15 -18 20 -25 6
-7 118 -147 248 -311 l238 -298 -5 -97 c-4 -53 -8 -122 -11 -152 -2 -30 -7
-95 -10 -145 -6 -89 -10 -155 -20 -290 -2 -38 -7 -108 -10 -155 -3 -47 -8
-116 -11 -153 -3 -37 -7 -98 -9 -135 -4 -74 -10 -167 -30 -442 -4 -64 -11
-158 -20 -295 -4 -66 -9 -143 -20 -295 -2 -36 -7 -99 -10 -140 -3 -41 -8 -111
-10 -155 -3 -44 -7 -109 -10 -146 -3 -36 -8 -101 -10 -144 -2 -44 -7 -116 -10
-160 -9 -107 -13 -171 -20 -285 -3 -52 -8 -120 -10 -150 -2 -30 -7 -98 -10
-150 -3 -52 -8 -120 -11 -150 -2 -30 -7 -95 -9 -145 -3 -49 -8 -110 -10 -135
-2 -25 -7 -94 -10 -155 -4 -60 -8 -128 -10 -150 -3 -22 -7 -89 -11 -150 -4
-60 -8 -121 -9 -135 -2 -14 -3 -32 -4 -40 -1 -13 -408 -15 -3601 -15 -1980 0
-3600 -2 -3600 -5 0 -4 1939 -1240 2008 -1280 14 -8 31 -19 37 -23 12 -9 92
-61 267 -171 179 -114 576 -366 618 -393 19 -13 40 -27 47 -33 7 -5 15 -10 18
-10 3 0 32 -17 63 -37 32 -21 65 -42 73 -48 9 -5 27 -17 40 -26 13 -9 143 -92
289 -184 146 -92 288 -182 315 -200 57 -37 179 -115 310 -198 50 -31 203 -129
340 -216 231 -147 410 -261 845 -537 204 -130 301 -192 407 -261 46 -29 86
-53 89 -53 3 0 19 -10 34 -22 16 -13 58 -41 95 -63 36 -22 94 -58 128 -80 187
-122 858 -546 869 -550 11 -4 163 258 386 669 18 34 39 70 46 81 12 18 37 64
126 227 40 74 284 511 297 533 7 11 15 27 19 35 4 8 84 152 177 320 94 168
178 321 189 340 10 19 23 42 28 50 15 24 135 240 169 305 18 33 40 74 50 90
22 38 45 79 161 290 51 94 102 182 112 197 11 16 16 28 12 28 -4 0 0 8 8 18 8
9 31 46 50 82 19 36 44 81 55 100 11 19 51 91 89 160 38 69 74 134 81 145 7
11 16 27 20 35 5 12 793 1430 907 1635 16 28 44 79 64 115 19 36 49 90 67 120
17 30 48 84 67 120 20 36 53 97 74 135 21 39 51 92 67 120 16 27 45 79 65 115
29 53 463 835 555 1000 122 220 372 669 402 725 21 39 46 84 56 100 10 17 34
62 55 100 20 39 40 75 44 80 4 6 65 114 135 240 70 127 139 250 152 275 14 25
44 79 66 120 22 41 44 80 49 86 4 6 19 31 32 55 13 24 33 61 44 81 12 21 38
68 58 105 21 37 114 205 207 373 94 168 194 348 222 400 29 52 74 133 100 180
26 47 60 108 75 135 15 28 49 88 75 135 26 47 57 103 70 125 12 22 54 98 93
168 40 70 72 130 72 132 0 3 18 34 40 70 22 36 40 67 40 69 0 2 40 75 88 162
49 88 104 186 122 219 18 33 41 75 52 93 11 18 18 35 16 37 -2 2 -28 11 -58
19 -74 20 -234 64 -295 80 -27 8 -75 21 -106 30 -31 9 -65 19 -75 21 -11 2
-77 20 -149 40 -71 20 -137 38 -145 40 -158 42 -910 247 -955 260 -51 15 -179
50 -565 155 -58 15 -130 35 -160 43 -30 9 -122 34 -205 56 -82 23 -166 46
-185 51 -19 6 -165 46 -325 89 -345 93 -285 77 -535 146 -352 97 -490 134
-510 139 -8 2 -231 63 -495 136 -264 72 -514 140 -555 151 -41 11 -122 33
-180 49 -195 54 -394 108 -495 135 -55 14 -111 30 -125 35 -14 4 -63 18 -110
30 -47 12 -105 28 -130 35 -25 7 -88 25 -140 39 -52 15 -351 96 -665 182 -313
85 -579 157 -590 160 -11 2 -49 12 -85 23 -36 10 -150 42 -255 70 -104 28
-203 55 -220 60 -16 5 -73 21 -125 35 -52 14 -203 56 -335 92 -132 36 -271 74
-310 84 -38 10 -162 44 -275 75 -113 31 -236 65 -273 75 l-68 18 28 -37z"/>
</g>
</svg>
