<?xml version="1.0" encoding="UTF-8"?>
<svg width="18px" height="10px" viewBox="0 0 18 10" version="1.1" xmlns="http://www.w3.org/2000/svg" xmlns:xlink="http://www.w3.org/1999/xlink">
    <!-- Generator: Sketch 46.2 (44496) - http://www.bohemiancoding.com/sketch -->
    <title>arow_right</title>
    <desc>Created with Sketch.</desc>
    <defs>
        <polygon id="path-1" points="0.00287618937 0.0122721771 0.00287618937 17.9787041 9.66977262 17.9787041 9.66977262 0.0122721771"></polygon>
    </defs>
    <g id="Page-1" stroke="none" stroke-width="1" fill="none" fill-rule="evenodd">
        <g id="ICO-LP-ver.1" transform="translate(-711.000000, -633.000000)">
            <g id="arow_right" transform="translate(720.000000, 638.000000) rotate(90.000000) translate(-720.000000, -638.000000) translate(715.000000, 629.000000)">
                <g id="back" transform="translate(5.000000, 9.000000) scale(-1, 1) translate(-5.000000, -9.000000) ">
                    <mask id="mask-2" fill="white">
                        <use xlink:href="#path-1"></use>
                    </mask>
                    <g id="Clip-2"></g>
                    <path d="M1.25310777,8.99499986 L9.51726268,0.88110231 C9.72060927,0.681452932 9.72060927,0.361552692 9.51726268,0.161903314 C9.31410784,-0.0376048686 8.98809178,-0.0376048686 8.78493693,0.161903314 L0.152438037,8.63744769 C-0.0507647423,8.8369088 -0.0507647423,9.1569973 0.152438037,9.35645842 L8.78493693,17.8281435 C8.88454896,17.9261326 9.01881907,17.9787041 9.14911044,17.9787041 C9.27944976,17.9787041 9.41371987,17.9298037 9.51352364,17.8281435 C9.71667848,17.6286824 9.71667848,17.3085939 9.51352364,17.1091327 L1.25310777,8.99499986 Z" id="Fill-1" fill="#0080E0" mask="url(#mask-2)"></path>
                </g>
            </g>
        </g>
    </g>
</svg>
