<?xml version="1.0" encoding="UTF-8"?>
<svg width="26px" height="26px" viewBox="0 0 26 26" version="1.1" xmlns="http://www.w3.org/2000/svg" xmlns:xlink="http://www.w3.org/1999/xlink">
    <!-- Generator: Sketch 47.1 (45422) - http://www.bohemiancoding.com/sketch -->
    <title>Combined Shape</title>
    <desc>Created with Sketch.</desc>
    <defs></defs>
    <g id="Symbols" stroke="none" stroke-width="1" fill="none" fill-rule="evenodd">
        <g id="Button-outline" transform="translate(-23.000000, -12.000000)" fill-rule="nonzero" fill="#2CA6E1">
            <path d="M49,25.0000002 C49,32.1797014 43.1797014,38 36.0000001,38 C28.8202983,38 23,32.1797014 23,25.0000002 C23,17.8202983 28.8202983,12 36.0000001,12 C43.1797014,12 49,17.8202983 49,25.0000002 Z M39.048122,27.92699 C39.4525412,26.8368303 40.9333678,22.6909484 41.1711258,21.6036024 C41.4399486,20.37419 40.8771901,20.2541649 39.5972521,20.6665127 C38.3173152,21.0788606 35.0348252,22.2788206 34.4823494,22.4722318 C33.9298735,22.6656431 31.240182,23.5572539 30.6825396,23.8232927 C29.5435463,24.4258554 30.0976204,25.3454265 31.3709167,25.8229038 C35.1766539,27.6246526 34.0960194,26.7065081 35.7950853,30.0403957 C36.1447489,30.8920699 36.9692303,32.3427658 37.7588854,31.2461806 C38.1740052,30.6224975 38.7300881,28.7842861 39.048122,27.92699 L39.048122,27.92699 Z" id="Combined-Shape"></path>
        </g>
    </g>
</svg>