<?xml version="1.0" encoding="UTF-8"?>
<svg width="22px" height="18px" viewBox="0 0 22 18" version="1.1" xmlns="http://www.w3.org/2000/svg" xmlns:xlink="http://www.w3.org/1999/xlink">
    <!-- Generator: Sketch 46.2 (44496) - http://www.bohemiancoding.com/sketch -->
    <title>Shape</title>
    <desc>Created with Sketch.</desc>
    <defs></defs>
    <g id="Page-1" stroke="none" stroke-width="1" fill="none" fill-rule="evenodd">
        <g id="Menu-Copy" transform="translate(-100.000000, -22.000000)" fill="#0080FF">
            <path d="M119.45616,33.6466353 C119.881775,33.2255602 119.883345,32.6589078 119.459387,32.2361848 C119.035429,31.8134619 118.468074,31.812557 118.044675,32.2358351 L112.136442,38.085226 L112.136442,21.49962 C112.136442,20.9025865 111.731573,20.5 111.135669,20.5 C110.539765,20.5 110.135069,20.9025865 110.135069,21.49962 L110.135069,38.085226 L104.230598,32.2319043 C103.807198,31.8086262 103.239285,31.8089759 102.815886,32.2322541 C102.392486,32.6555322 102.395824,33.2193153 102.819223,33.6425948 L110.432072,41.1661606 C110.874609,41.6079102 111.40516,41.6079102 111.847134,41.1661606 L119.45616,33.6466353 Z" id="Shape" transform="translate(111.138183, 30.998736) rotate(90.000000) translate(-111.138183, -30.998736) "></path>
        </g>
    </g>
</svg>
