<?xml version="1.0" encoding="UTF-8"?>
<svg width="18px" height="20px" viewBox="0 0 18 20" version="1.1" xmlns="http://www.w3.org/2000/svg" xmlns:xlink="http://www.w3.org/1999/xlink">
    <!-- Generator: Sketch 46.2 (44496) - http://www.bohemiancoding.com/sketch -->
    <title>Combined Shape</title>
    <desc>Created with Sketch.</desc>
    <defs></defs>
    <g id="Page-1" stroke="none" stroke-width="1" fill="none" fill-rule="evenodd">
        <g id="Menu-Copy" transform="translate(-1198.000000, -20.000000)" fill-rule="nonzero" fill="#0080E0">
            <path d="M1214.95616,28.1466353 L1207.34713,35.6661606 C1206.90516,36.1079102 1206.37461,36.1079102 1205.93207,35.6661606 L1198.31922,28.1425948 C1197.89582,27.7193153 1197.89249,27.1555322 1198.31589,26.7322541 C1198.73929,26.3089759 1199.3072,26.3086262 1199.7306,26.7319043 L1205.63507,32.585226 L1205.63507,20.99962 C1205.63507,20.4025865 1206.03976,20 1206.63567,20 C1207.23157,20 1207.63644,20.4025865 1207.63644,20.99962 L1207.63644,32.585226 L1213.54467,26.7358351 C1213.96807,26.312557 1214.53543,26.3134619 1214.95939,26.7361848 C1215.38334,27.1589078 1215.38177,27.7255602 1214.95616,28.1466353 Z M1214.26024,37.9997892 C1214.86991,37.9997892 1215.27637,38.3998252 1215.27637,38.9998944 C1215.27637,39.5999637 1214.86991,39.9999997 1214.26024,39.9999997 L1199.0184,39.9999997 C1198.40872,40.0003844 1198.00227,39.5999637 1198.00227,38.9998944 C1198.00227,38.3998252 1198.40872,37.9997892 1199.0184,37.9997892 L1214.26024,37.9997892 Z" id="Combined-Shape"></path>
        </g>
    </g>
</svg>
