<?xml version="1.0" encoding="UTF-8"?>
<svg width="40px" height="40px" viewBox="0 0 40 40" version="1.1" xmlns="http://www.w3.org/2000/svg" xmlns:xlink="http://www.w3.org/1999/xlink">
    <!-- Generator: Sketch 47 (45396) - http://www.bohemiancoding.com/sketch -->
    <title>Combined Shape Copy</title>
    <desc>Created with Sketch.</desc>
    <defs></defs>
    <g id="Web" stroke="none" stroke-width="1" fill="none" fill-rule="evenodd">
        <g id="Main" transform="translate(-750.000000, -7658.000000)" fill-rule="nonzero" fill="#FFFFFF">
            <g id="Executive-team" transform="translate(0.000000, 7262.000000)">
                <g id="Hover" transform="translate(620.000000, 316.000000)">
                    <g id="Group-18" transform="translate(130.000000, 80.000000)">
                        <path d="M20,40 C31.045695,40 40,31.045695 40,20 C40,8.954305 31.045695,0 20,0 C8.954305,0 0,8.954305 0,20 C0,31.045695 8.954305,40 20,40 Z M15.938,12.503 C16.64,12.503 17.278,12.563 17.858,12.691 C18.435,12.821 18.928,13.021 19.343,13.301 C19.753,13.581 20.076,13.951 20.303,14.421 C20.528,14.891 20.643,15.471 20.643,16.151 C20.643,16.891 20.473,17.511 20.136,18.011 C19.798,18.511 19.299,18.911 18.634,19.231 C19.54,19.491 20.21,19.951 20.656,20.601 C21.104,21.261 21.321,22.051 21.321,22.961 C21.321,23.711 21.191,24.351 20.911,24.891 C20.631,25.441 20.241,25.891 19.751,26.241 C19.271,26.589 18.701,26.841 18.081,27.008 C17.471,27.173 16.829,27.262 16.171,27.262 L9,27.262 L9,12.51 L15.938,12.51 L15.938,12.503 Z M25.94,24.665 C26.38,25.093 27.013,25.308 27.834,25.308 C28.424,25.308 28.934,25.16 29.364,24.861 C29.788,24.571 30.044,24.251 30.144,23.921 L32.732,23.921 C32.329,25.201 31.684,26.121 30.832,26.671 C29.982,27.231 28.948,27.501 27.752,27.501 C26.915,27.501 26.168,27.371 25.48,27.101 C24.807,26.831 24.24,26.451 23.76,25.961 C23.296,25.471 22.937,24.881 22.683,24.191 C22.43,23.501 22.31,22.741 22.31,21.921 C22.31,21.118 22.445,20.381 22.713,19.691 C22.983,18.991 23.357,18.411 23.833,17.901 C24.328,17.391 24.896,17.006 25.569,16.707 C26.242,16.408 26.969,16.274 27.789,16.274 C28.699,16.274 29.479,16.438 30.169,16.797 C30.839,17.137 31.389,17.617 31.829,18.197 C32.269,18.783 32.579,19.457 32.769,20.217 C32.959,20.967 33.019,21.757 32.979,22.597 L25.289,22.597 C25.289,23.437 25.569,24.229 25.999,24.662 L25.919,24.692 L25.94,24.665 Z M15.7,24.715 C16.017,24.715 16.32,24.685 16.606,24.622 C16.896,24.562 17.154,24.457 17.369,24.322 C17.579,24.187 17.759,23.994 17.889,23.739 C18.019,23.499 18.079,23.169 18.079,22.779 C18.079,22.029 17.859,21.489 17.439,21.159 C17.009,20.839 16.449,20.679 15.749,20.679 L12.24,20.679 L12.24,24.729 L15.7,24.729 L15.7,24.699 L15.7,24.715 Z M29.307,19.065 C28.955,18.68 28.367,18.473 27.65,18.473 C27.182,18.473 26.795,18.547 26.484,18.711 C26.182,18.861 25.934,19.061 25.744,19.301 C25.554,19.541 25.427,19.781 25.352,20.051 C25.277,20.311 25.232,20.551 25.217,20.761 L29.979,20.761 C29.909,20.011 29.649,19.461 29.299,19.071 L29.299,19.081 L29.307,19.065 Z M15.52,18.45 C16.094,18.45 16.57,18.316 16.945,18.038 C17.319,17.768 17.499,17.318 17.499,16.7 C17.499,16.356 17.429,16.075 17.319,15.854 C17.189,15.634 17.019,15.464 16.819,15.342 C16.609,15.218 16.369,15.132 16.099,15.085 C15.829,15.032 15.539,15.011 15.259,15.011 L12.23,15.011 L12.23,18.451 L15.52,18.451 L15.52,18.45 Z M24.618,13.492 L30.586,13.492 L30.586,14.946 L24.618,14.946 L24.618,13.48 L24.618,13.49 L24.618,13.492 Z" id="Combined-Shape-Copy"></path>
                    </g>
                </g>
            </g>
        </g>
    </g>
</svg>