<svg xmlns="http://www.w3.org/2000/svg" width="28" height="28" viewBox="0 0 28 28">
    <path fill="#FFF" fill-rule="nonzero" d="M26.095 7.131a14.07 14.07 0 0 0-5.09-5.193C18.862.662 16.523.024 13.985.024c-2.537 0-4.877.638-7.02 1.914a14.069 14.069 0 0 0-5.09 5.193C.626 9.318 0 11.705 0 14.294c0 3.11.89 5.906 2.668 8.39 1.778 2.484 4.076 4.202 6.892 5.156.328.062.57.019.729-.13a.734.734 0 0 0 .236-.557l-.009-1.003c-.006-.632-.01-1.184-.01-1.654l-.418.074c-.267.05-.604.071-1.01.065a7.551 7.551 0 0 1-1.266-.13 2.801 2.801 0 0 1-1.22-.557 2.357 2.357 0 0 1-.801-1.143l-.183-.427a4.66 4.66 0 0 0-.573-.948c-.261-.347-.525-.582-.792-.706l-.128-.093a1.348 1.348 0 0 1-.236-.223 1.022 1.022 0 0 1-.164-.26c-.037-.087-.006-.158.09-.214.098-.056.274-.083.529-.083l.364.055c.243.05.543.198.901.446s.653.57.884.966c.279.508.615.895 1.01 1.162.395.266.792.399 1.193.399.4 0 .746-.031 1.038-.093.291-.062.564-.155.82-.279.109-.83.406-1.468.891-1.914a12.243 12.243 0 0 1-1.866-.334 7.35 7.35 0 0 1-1.712-.725 4.927 4.927 0 0 1-1.466-1.245c-.388-.496-.707-1.146-.956-1.951-.248-.805-.373-1.734-.373-2.787 0-1.5.48-2.775 1.439-3.828-.45-1.127-.407-2.391.127-3.79.352-.112.874-.029 1.566.25.692.279 1.2.517 1.52.715.323.198.58.366.775.502a12.689 12.689 0 0 1 3.496-.483c1.202 0 2.368.161 3.497.483l.692-.446a9.716 9.716 0 0 1 1.675-.817c.643-.248 1.135-.316 1.475-.205.547 1.4.595 2.664.146 3.79.959 1.054 1.439 2.33 1.439 3.829 0 1.053-.125 1.985-.374 2.796-.248.812-.57 1.462-.964 1.951-.395.49-.887.902-1.476 1.236a7.364 7.364 0 0 1-1.712.725 12.23 12.23 0 0 1-1.866.335c.631.557.947 1.436.947 2.638v3.92c0 .223.076.41.227.558.152.148.392.192.72.13 2.816-.954 5.114-2.673 6.892-5.157 1.779-2.483 2.668-5.28 2.668-8.39 0-2.588-.626-4.975-1.876-7.162z" opacity="1"/>
</svg>
