<svg xmlns="http://www.w3.org/2000/svg" width="28" height="28" viewBox="0 0 28 28">
    <path fill="#FFF" fill-rule="nonzero" d="M13.967 0c7.715 0 13.968 6.254 13.968 13.967 0 7.714-6.253 13.968-13.968 13.968C6.253 27.935 0 21.68 0 13.967 0 6.254 6.253 0 13.967 0zM7.871 19.191h2.615v-8.717H7.871v8.717zm10.189-9.02c-1.27 0-2.405.464-3.21 1.487v-1.213h-2.626v8.746h2.625v-4.73c0-.999.916-1.974 2.063-1.974 1.147 0 1.43.975 1.43 1.95v4.753h2.615v-4.948c0-3.436-1.627-4.07-2.897-4.07zm-8.894-.568a1.31 1.31 0 1 0 0-2.62 1.31 1.31 0 0 0 0 2.62z" opacity="1"/>
</svg>
