<svg xmlns="http://www.w3.org/2000/svg" width="28" height="28" viewBox="0 0 28 28">
    <path fill="#FFF" fill-rule="nonzero" d="M13.967 0c7.715 0 13.968 6.254 13.968 13.967 0 7.715-6.253 13.968-13.968 13.968C6.253 27.935 0 21.682 0 13.967 0 6.254 6.253 0 13.967 0zm.423 6.116c-4.922 0-7.402 3.417-7.402 6.265 0 1.725.674 3.26 2.121 3.832.237.093.45.003.519-.251l.211-.806c.07-.25.043-.34-.148-.558-.418-.476-.684-1.093-.684-1.967 0-2.534 1.958-4.803 5.1-4.803 2.781 0 4.309 1.645 4.309 3.843 0 2.89-1.322 5.332-3.284 5.332-1.083 0-1.894-.867-1.634-1.933.31-1.27.915-2.64.915-3.558 0-.82-.455-1.506-1.398-1.506-1.108 0-1.997 1.11-1.997 2.596 0 .947.33 1.587.33 1.587l-1.332 5.466c-.396 1.62-.059 3.61-.03 3.81.017.119.174.147.245.058.102-.13 1.421-1.707 1.87-3.284.128-.446.729-2.756.729-2.756.36.666 1.412 1.25 2.53 1.25 3.328 0 5.588-2.939 5.588-6.872-.001-2.974-2.603-5.745-6.558-5.745z" opacity="1"/>
</svg>
