<svg xmlns="http://www.w3.org/2000/svg" width="28" height="28" viewBox="0 0 28 28">
    <path fill="#FFF" fill-rule="nonzero" d="M13.9 27.8C6.225 27.8 0 21.578 0 13.9 0 6.223 6.224 0 13.9 0c7.678 0 13.901 6.223 13.901 13.9 0 7.677-6.223 13.9-13.9 13.9zm8.515-17.81a6.63 6.63 0 0 1-1.908.522 3.332 3.332 0 0 0 1.46-1.837 6.651 6.651 0 0 1-2.11.806 3.323 3.323 0 0 0-5.662 3.03A9.432 9.432 0 0 1 7.348 9.04a3.322 3.322 0 0 0 1.028 4.436 3.3 3.3 0 0 1-1.504-.416v.042a3.325 3.325 0 0 0 2.665 3.257 3.31 3.31 0 0 1-1.5.058 3.326 3.326 0 0 0 3.103 2.307A6.666 6.666 0 0 1 6.22 20.1a9.398 9.398 0 0 0 5.093 1.493c6.111 0 9.454-5.063 9.454-9.454 0-.144-.004-.287-.01-.43a6.738 6.738 0 0 0 1.658-1.72z" opacity="1"/>
</svg>
