<?xml version="1.0" encoding="UTF-8"?>
<svg width="17px" height="12px" viewBox="0 0 17 12" version="1.1" xmlns="http://www.w3.org/2000/svg" xmlns:xlink="http://www.w3.org/1999/xlink">
    <!-- Generator: Sketch 46.2 (44496) - http://www.bohemiancoding.com/sketch -->
    <title>right-arrow (1)</title>
    <desc>Created with Sketch.</desc>
    <defs></defs>
    <g id="Page-1" stroke="none" stroke-width="1" fill="none" fill-rule="evenodd">
        <g id="ICO-LP-ver.1" transform="translate(-1066.000000, -894.000000)" fill-rule="nonzero" fill="#0080E0">
            <g id="right-arrow-(1)" transform="translate(1066.000000, 894.000000)">
                <path d="M11.0634783,0.525391304 C10.8396522,0.29373913 10.4671304,0.29373913 10.2354783,0.525391304 C10.0116522,0.749217391 10.0116522,1.12173913 10.2354783,1.34504348 L14.433913,5.54347826 L0.579652174,5.54347826 C0.256695652,5.544 0,5.80069565 0,6.12365217 C0,6.4466087 0.256695652,6.71165217 0.579652174,6.71165217 L14.433913,6.71165217 L10.2354783,10.9022609 C10.0116522,11.133913 10.0116522,11.5069565 10.2354783,11.7302609 C10.4671304,11.961913 10.8401739,11.961913 11.0634783,11.7302609 L16.2558261,6.53791304 C16.4874783,6.31408696 16.4874783,5.94156522 16.2558261,5.71826087 L11.0634783,0.525391304 Z" id="Shape"></path>
            </g>
        </g>
    </g>
</svg>
