<?xml version="1.0" encoding="UTF-8"?>
<svg width="20px" height="20px" viewBox="0 0 20 20" version="1.1" xmlns="http://www.w3.org/2000/svg" xmlns:xlink="http://www.w3.org/1999/xlink">
    <!-- Generator: Sketch 47.1 (45422) - http://www.bohemiancoding.com/sketch -->
    <title>Combined Shape</title>
    <desc>Created with Sketch.</desc>
    <defs></defs>
    <g id="Symbols" stroke="none" stroke-width="1" fill="none" fill-rule="evenodd">
        <g id="Check-On-White" fill="#FFFFFF">
            <path d="M4,0 L16,0 C18.209139,-4.05812251e-16 20,1.790861 20,4 L20,16 C20,18.209139 18.209139,20 16,20 L4,20 C1.790861,20 2.705415e-16,18.209139 0,16 L0,4 L0,4 C-2.705415e-16,1.790861 1.790861,4.05812251e-16 4,0 L4,0 Z M13.1113098,7.21758626 L9.07005446,11.2711092 L6.8890123,9.07844766 C6.73362654,8.92223409 6.48117137,8.92109525 6.32438259,9.07590058 L5.71896341,9.67366093 C5.56134709,9.82928334 5.56020438,10.0833625 5.71641455,10.2403963 L8.78614557,13.3263132 C8.94241443,13.483406 9.19661247,13.4835319 9.35303687,13.326594 L14.2833059,8.38013916 C14.4397809,8.22315046 14.4387631,7.9688542 14.2810366,7.81312297 L13.6756174,7.21536262 C13.5189554,7.06068242 13.266748,7.06167623 13.1113098,7.21758626 Z" id="Combined-Shape"></path>
        </g>
    </g>
</svg>